<svg xmlns="http://www.w3.org/2000/svg" xmlns:xlink="http://www.w3.org/1999/xlink" width="800" height="600" class="main-svg" viewBox="0 0 800 600"><rect width="800" height="600" x="0" y="0" style="fill:#f5f6f9;fill-opacity:1"/><defs id="defs-9ebe3c"><g class="clips"><clipPath id="clip9ebe3cxyplot" class="plotclip"><rect width="544" height="420"/></clipPath><clipPath id="clip9ebe3cx" class="axesclip"><rect width="544" height="600" x="80" y="0"/></clipPath><clipPath id="clip9ebe3cy" class="axesclip"><rect width="800" height="420" x="0" y="100"/></clipPath><clipPath id="clip9ebe3cxy" class="axesclip"><rect width="544" height="420" x="80" y="100"/></clipPath></g></defs><g class="bglayer"><rect width="544" height="420" x="80" y="100" class="bg" style="fill:#f5f6f9;fill-opacity:1;stroke-width:0"/></g><g class="cartesianlayer"><g class="subplot xy"><g class="gridlayer"><path d="M0,0v420" class="xgrid crisp" transform="translate(80,100) translate(51.81,0)" style="stroke:#e1e5ed;stroke-opacity:1;stroke-width:1px"/><path d="M0,0v420" class="xgrid crisp" transform="translate(80,100) translate(129.52,0)" style="stroke:#e1e5ed;stroke-opacity:1;stroke-width:1px"/><path d="M0,0v420" class="xgrid crisp" transform="translate(80,100) translate(207.24,0)" style="stroke:#e1e5ed;stroke-opacity:1;stroke-width:1px"/><path d="M0,0v420" class="xgrid crisp" transform="translate(80,100) translate(284.95,0)" style="stroke:#e1e5ed;stroke-opacity:1;stroke-width:1px"/><path d="M0,0v420" class="xgrid crisp" transform="translate(80,100) translate(362.67,0)" style="stroke:#e1e5ed;stroke-opacity:1;stroke-width:1px"/><path d="M0,0v420" class="xgrid crisp" transform="translate(80,100) translate(440.38,0)" style="stroke:#e1e5ed;stroke-opacity:1;stroke-width:1px"/><path d="M0,0v420" class="xgrid crisp" transform="translate(80,100) translate(518.1,0)" style="stroke:#e1e5ed;stroke-opacity:1;stroke-width:1px"/><path d="M0,0h544" class="ygrid crisp" transform="translate(80,100) translate(0,340.2)" style="stroke:#e1e5ed;stroke-opacity:1;stroke-width:1px"/><path d="M0,0h544" class="ygrid crisp" transform="translate(80,100) translate(0,260.4)" style="stroke:#e1e5ed;stroke-opacity:1;stroke-width:1px"/><path d="M0,0h544" class="ygrid crisp" transform="translate(80,100) translate(0,180.6)" style="stroke:#e1e5ed;stroke-opacity:1;stroke-width:1px"/><path d="M0,0h544" class="ygrid crisp" transform="translate(80,100) translate(0,100.8)" style="stroke:#e1e5ed;stroke-opacity:1;stroke-width:1px"/><path d="M0,0h544" class="ygrid crisp" transform="translate(80,100) translate(0,21)" style="stroke:#e1e5ed;stroke-opacity:1;stroke-width:1px"/></g><g class="zerolinelayer"><path d="M0,0h544" class="yzl zl crisp" transform="translate(80,100) translate(0,420)" style="stroke:#e1e5ed;stroke-opacity:1;stroke-width:1px"/></g><path class="xlines-below"/><path class="ylines-below"/><g class="plot" clip-path="url(#clip9ebe3cxyplot)" transform="translate(80, 100)"><g class="scatterlayer"><g class="trace scatter tracec09485" style="stroke-miterlimit:2"><path d="M544,420L0,420L0,21L544,21.05" class="js-fill js-tozero" style="fill:#f93;fill-opacity:.3;stroke-width:0"/><path style="vector-effect:non-scaling-stroke;fill:none;stroke:#f93;stroke-opacity:1;stroke-width:1.3px;opacity:1" d="M0,21L544,21.05" class="js-line"/></g><g class="trace scatter tracecfbd2d" style="stroke-miterlimit:2"><path d="M544,420L0,420L0,396.18L25.9,396.76L51.81,395.57L103.62,393.96L129.52,393.92L181.33,394.57L207.24,393.85L233.14,394.42L259.05,393.08L284.95,393.51L310.86,388.68L336.76,385.8L362.67,385.43L388.57,384.3L414.48,365.93L440.38,307.06L466.29,260.6L492.19,244.1L518.1,244.36L544,245.65" class="js-fill js-tozero" style="fill:#3780bf;fill-opacity:.3;stroke-width:0"/><path style="vector-effect:non-scaling-stroke;fill:none;stroke:#3780bf;stroke-opacity:1;stroke-width:1.3px;opacity:1" d="M0,396.18L25.9,396.76L51.81,395.57L103.62,393.96L129.52,393.92L181.33,394.57L207.24,393.85L233.14,394.42L259.05,393.08L284.95,393.51L310.86,388.68L336.76,385.8L362.67,385.43L388.57,384.3L414.48,365.93L440.38,307.06L466.29,260.6L492.19,244.1L518.1,244.36L544,245.65" class="js-line"/></g></g></g><path style="fill:none;stroke-width:1px;stroke:#000;stroke-opacity:0" d="M-1,420.5H544" class="xlines-above crisp" transform="translate(80,100)"/><path style="fill:none;stroke-width:1px;stroke:#000;stroke-opacity:0" d="M-0.5,0V420" class="ylines-above crisp" transform="translate(80,100)"/><g class="xaxislayer-above"><g class="xtick"><text x="0" y="433" text-anchor="middle" transform="translate(80,100) translate(51.81,0)" style="font-family:TOBESTRIPPEDOpen\ SansTOBESTRIPPED,verdana,arial,sans-serif;font-size:12px;fill:#4d5663;fill-opacity:1;white-space:pre"><tspan x="0" y="433" class="line" dy="0em">Apr 3</tspan><tspan x="0" y="433" class="line" dy="1.3em">2018</tspan></text></g><g class="xtick"><text x="0" y="433" text-anchor="middle" transform="translate(80,100) translate(129.52,0)" style="font-family:TOBESTRIPPEDOpen\ SansTOBESTRIPPED,verdana,arial,sans-serif;font-size:12px;fill:#4d5663;fill-opacity:1;white-space:pre">Apr 6</text></g><g class="xtick"><text x="0" y="433" text-anchor="middle" transform="translate(80,100) translate(207.24,0)" style="font-family:TOBESTRIPPEDOpen\ SansTOBESTRIPPED,verdana,arial,sans-serif;font-size:12px;fill:#4d5663;fill-opacity:1;white-space:pre">Apr 9</text></g><g class="xtick"><text x="0" y="433" text-anchor="middle" transform="translate(80,100) translate(284.95,0)" style="font-family:TOBESTRIPPEDOpen\ SansTOBESTRIPPED,verdana,arial,sans-serif;font-size:12px;fill:#4d5663;fill-opacity:1;white-space:pre">Apr 12</text></g><g class="xtick"><text x="0" y="433" text-anchor="middle" transform="translate(80,100) translate(362.67,0)" style="font-family:TOBESTRIPPEDOpen\ SansTOBESTRIPPED,verdana,arial,sans-serif;font-size:12px;fill:#4d5663;fill-opacity:1;white-space:pre">Apr 15</text></g><g class="xtick"><text x="0" y="433" text-anchor="middle" transform="translate(80,100) translate(440.38,0)" style="font-family:TOBESTRIPPEDOpen\ SansTOBESTRIPPED,verdana,arial,sans-serif;font-size:12px;fill:#4d5663;fill-opacity:1;white-space:pre">Apr 18</text></g><g class="xtick"><text x="0" y="433" text-anchor="middle" transform="translate(80,100) translate(518.1,0)" style="font-family:TOBESTRIPPEDOpen\ SansTOBESTRIPPED,verdana,arial,sans-serif;font-size:12px;fill:#4d5663;fill-opacity:1;white-space:pre">Apr 21</text></g></g><g class="yaxislayer-above"><g class="ytick"><text x="-1" y="4.2" text-anchor="end" transform="translate(80,100) translate(0,420)" style="font-family:TOBESTRIPPEDOpen\ SansTOBESTRIPPED,verdana,arial,sans-serif;font-size:12px;fill:#4d5663;fill-opacity:1;white-space:pre">0</text></g><g class="ytick"><text x="-1" y="4.2" text-anchor="end" transform="translate(80,100) translate(0,340.2)" style="font-family:TOBESTRIPPEDOpen\ SansTOBESTRIPPED,verdana,arial,sans-serif;font-size:12px;fill:#4d5663;fill-opacity:1;white-space:pre">20</text></g><g class="ytick"><text x="-1" y="4.2" text-anchor="end" transform="translate(80,100) translate(0,260.4)" style="font-family:TOBESTRIPPEDOpen\ SansTOBESTRIPPED,verdana,arial,sans-serif;font-size:12px;fill:#4d5663;fill-opacity:1;white-space:pre">40</text></g><g class="ytick"><text x="-1" y="4.2" text-anchor="end" transform="translate(80,100) translate(0,180.6)" style="font-family:TOBESTRIPPEDOpen\ SansTOBESTRIPPED,verdana,arial,sans-serif;font-size:12px;fill:#4d5663;fill-opacity:1;white-space:pre">60</text></g><g class="ytick"><text x="-1" y="4.2" text-anchor="end" transform="translate(80,100) translate(0,100.8)" style="font-family:TOBESTRIPPEDOpen\ SansTOBESTRIPPED,verdana,arial,sans-serif;font-size:12px;fill:#4d5663;fill-opacity:1;white-space:pre">80</text></g><g class="ytick"><text x="-1" y="4.2" text-anchor="end" transform="translate(80,100) translate(0,21)" style="font-family:TOBESTRIPPEDOpen\ SansTOBESTRIPPED,verdana,arial,sans-serif;font-size:12px;fill:#4d5663;fill-opacity:1;white-space:pre">100</text></g></g></g></g><defs id="topdefs-9ebe3c"><clipPath id="legend9ebe3c"><rect width="153" height="48" x="0" y="0"/></clipPath></defs><g class="infolayer"><g class="g-gtitle"><text style="font-family:TOBESTRIPPEDOpen\ SansTOBESTRIPPED,verdana,arial,sans-serif;font-size:17px;fill:#4d5663;opacity:1;font-weight:400;white-space:pre" x="400" y="50" class="gtitle" text-anchor="middle">Relative proportion of traffic in Germany</text></g><g class="legend" pointer-events="all" transform="translate(634.88, 100)"><rect style="stroke:#444;stroke-opacity:1;fill:#f5f6f9;fill-opacity:1;stroke-width:0" width="153" height="48" x="0" y="0" class="bg" shape-rendering="crispEdges"/><g class="scrollbox" clip-path="url(#legend9ebe3c)" transform="translate(0, 0)"><g class="groups"><g class="traces" transform="translate(0, 14.5)" style="opacity:1"><g class="layers"><g class="legendfill"><path d="M5,0h30v6h-30z" class="js-fill" style="stroke-width:0;fill:#f93;fill-opacity:.3"/></g><g class="legendlines"><path d="M5,0h30" class="js-line" style="fill:none;stroke:#f93;stroke-opacity:1;stroke-width:1.3px"/></g></g><text style="font-family:TOBESTRIPPEDOpen\ SansTOBESTRIPPED,verdana,arial,sans-serif;font-size:12px;fill:#4d5663;fill-opacity:1;white-space:pre" x="40" y="4.68" class="legendtext user-select-none" text-anchor="start">www.google.de</text><rect style="cursor:pointer;fill:#000;fill-opacity:0" width="193" height="19" x="0" y="-9.5" class="legendtoggle" pointer-events="all"/></g><g class="traces" transform="translate(0, 33.5)" style="opacity:1"><g class="layers"><g class="legendfill"><path d="M5,0h30v6h-30z" class="js-fill" style="stroke-width:0;fill:#3780bf;fill-opacity:.3"/></g><g class="legendlines"><path d="M5,0h30" class="js-line" style="fill:none;stroke:#3780bf;stroke-opacity:1;stroke-width:1.3px"/></g></g><text style="font-family:TOBESTRIPPEDOpen\ SansTOBESTRIPPED,verdana,arial,sans-serif;font-size:12px;fill:#4d5663;fill-opacity:1;white-space:pre" x="40" y="4.68" class="legendtext user-select-none" text-anchor="start">www.google.com</text><rect style="cursor:pointer;fill:#000;fill-opacity:0" width="193" height="19" x="0" y="-9.5" class="legendtoggle" pointer-events="all"/></g></g></g><rect width="0" height="0" class="scrollbar" rx="20" ry="2" style="fill:#808ba4;fill-opacity:1"/></g><g class="g-ytitle"><text style="font-family:TOBESTRIPPEDOpen\ SansTOBESTRIPPED,verdana,arial,sans-serif;font-size:14px;fill:#4d5663;opacity:1;font-weight:400;white-space:pre" x="42" y="310" class="ytitle" text-anchor="middle" transform="rotate(-90,42,310) translate(0, 0)">Percentage of traffic</text></g></g></svg>