<svg xmlns="http://www.w3.org/2000/svg" xmlns:xlink="http://www.w3.org/1999/xlink" width="800" height="600" class="main-svg" viewBox="0 0 800 600"><rect width="800" height="600" x="0" y="0" style="fill:#f5f6f9;fill-opacity:1"/><defs id="defs-2bfc57"><g class="clips"><clipPath id="clip2bfc57xyplot" class="plotclip"><rect width="537" height="420"/></clipPath><clipPath id="clip2bfc57x" class="axesclip"><rect width="537" height="600" x="80" y="0"/></clipPath><clipPath id="clip2bfc57y" class="axesclip"><rect width="800" height="420" x="0" y="100"/></clipPath><clipPath id="clip2bfc57xy" class="axesclip"><rect width="537" height="420" x="80" y="100"/></clipPath></g></defs><g class="bglayer"><rect width="537" height="420" x="80" y="100" class="bg" style="fill:#f5f6f9;fill-opacity:1;stroke-width:0"/></g><g class="cartesianlayer"><g class="subplot xy"><g class="gridlayer"><path d="M0,0v420" class="xgrid crisp" transform="translate(80,100) translate(51.14,0)" style="stroke:#e1e5ed;stroke-opacity:1;stroke-width:1px"/><path d="M0,0v420" class="xgrid crisp" transform="translate(80,100) translate(127.86,0)" style="stroke:#e1e5ed;stroke-opacity:1;stroke-width:1px"/><path d="M0,0v420" class="xgrid crisp" transform="translate(80,100) translate(204.57,0)" style="stroke:#e1e5ed;stroke-opacity:1;stroke-width:1px"/><path d="M0,0v420" class="xgrid crisp" transform="translate(80,100) translate(281.29,0)" style="stroke:#e1e5ed;stroke-opacity:1;stroke-width:1px"/><path d="M0,0v420" class="xgrid crisp" transform="translate(80,100) translate(358,0)" style="stroke:#e1e5ed;stroke-opacity:1;stroke-width:1px"/><path d="M0,0v420" class="xgrid crisp" transform="translate(80,100) translate(434.71,0)" style="stroke:#e1e5ed;stroke-opacity:1;stroke-width:1px"/><path d="M0,0v420" class="xgrid crisp" transform="translate(80,100) translate(511.43,0)" style="stroke:#e1e5ed;stroke-opacity:1;stroke-width:1px"/><path d="M0,0h537" class="ygrid crisp" transform="translate(80,100) translate(0,393.52)" style="stroke:#e1e5ed;stroke-opacity:1;stroke-width:1px"/><path d="M0,0h537" class="ygrid crisp" transform="translate(80,100) translate(0,206)" style="stroke:#e1e5ed;stroke-opacity:1;stroke-width:1px"/><path d="M0,0h537" class="ygrid crisp" transform="translate(80,100) translate(0,112.24)" style="stroke:#e1e5ed;stroke-opacity:1;stroke-width:1px"/><path d="M0,0h537" class="ygrid crisp" transform="translate(80,100) translate(0,18.47)" style="stroke:#e1e5ed;stroke-opacity:1;stroke-width:1px"/></g><g class="zerolinelayer"><path d="M0,0h537" class="yzl zl crisp" transform="translate(80,100) translate(0,299.76)" style="stroke:#e1e5ed;stroke-opacity:1;stroke-width:1px"/></g><path class="xlines-below"/><path class="ylines-below"/><g class="plot" clip-path="url(#clip2bfc57xyplot)" transform="translate(80, 100)"><g class="scatterlayer"><g class="trace scatter trace7adba5" style="stroke-miterlimit:2"><path d="M537,299.76L0,299.76L0,299.76L25.57,216.3L51.14,199.31L76.71,203L102.29,211.24L127.86,233.42L153.43,297.09L179,284.26L204.57,202.99L230.14,203.56L255.71,214.59L281.29,217.58L306.86,222.74L332.43,279.86L358,253L383.57,169.26L409.14,150.86L434.71,83.48L460.29,21L485.86,34.14L511.43,128.59L537,65.16" class="js-fill js-tozero" style="fill:#f93;fill-opacity:.3;stroke-width:0"/><path style="vector-effect:non-scaling-stroke;fill:none;stroke:#f93;stroke-opacity:1;stroke-width:1.3px;opacity:1" d="M0,299.76L25.57,216.3L51.14,199.31L76.71,203L102.29,211.24L127.86,233.42L153.43,297.09L179,284.26L204.57,202.99L230.14,203.56L255.71,214.59L281.29,217.58L306.86,222.74L332.43,279.86L358,253L383.57,169.26L409.14,150.86L434.71,83.48L460.29,21L485.86,34.14L511.43,128.59L537,65.16" class="js-line"/></g><g class="trace scatter trace4e027e" style="stroke-miterlimit:2"><path d="M537,299.76L0,299.76L0,299.76L25.57,274.14L51.14,239.96L102.29,228.74L127.86,275.6L153.43,330.78L179,286.18L204.57,233.67L230.14,233.33L255.71,239.61L281.29,252.22L306.86,259.22L332.43,317.22L358,266.56L383.57,227.13L409.14,268.32L434.71,311.76L460.29,345.58L485.86,369.77L511.43,392.62L537,356.99" class="js-fill js-tozero" style="fill:#3780bf;fill-opacity:.3;stroke-width:0"/><path style="vector-effect:non-scaling-stroke;fill:none;stroke:#3780bf;stroke-opacity:1;stroke-width:1.3px;opacity:1" d="M0,299.76L25.57,274.14L51.14,239.96L102.29,228.74L127.86,275.6L153.43,330.78L179,286.18L204.57,233.67L230.14,233.33L255.71,239.61L281.29,252.22L306.86,259.22L332.43,317.22L358,266.56L383.57,227.13L409.14,268.32L434.71,311.76L460.29,345.58L485.86,369.77L511.43,392.62L537,356.99" class="js-line"/></g><g class="trace scatter trace018edd" style="stroke-miterlimit:2"><path d="M537,299.76L0,299.76L0,299.76L25.57,255.88L51.14,239.11L76.71,231.54L102.29,258.12L127.86,283.48L153.43,300.21L179,271.21L204.57,237.05L230.14,248.28L255.71,256.87L281.29,262.92L306.86,285.89L332.43,310.05L358,295.63L383.57,258L409.14,287.62L434.71,320.39L460.29,354.54L485.86,371.62L511.43,393.71L537,375.47" class="js-fill js-tozero" style="fill:#32ab60;fill-opacity:.3;stroke-width:0"/><path style="vector-effect:non-scaling-stroke;fill:none;stroke:#32ab60;stroke-opacity:1;stroke-width:1.3px;opacity:1" d="M0,299.76L25.57,255.88L51.14,239.11L76.71,231.54L102.29,258.12L127.86,283.48L153.43,300.21L179,271.21L204.57,237.05L230.14,248.28L255.71,256.87L281.29,262.92L306.86,285.89L332.43,310.05L358,295.63L383.57,258L409.14,287.62L434.71,320.39L460.29,354.54L485.86,371.62L511.43,393.71L537,375.47" class="js-line"/></g><g class="trace scatter trace70ac75" style="stroke-miterlimit:2"><path d="M537,299.76L0,299.76L0,299.76L25.57,288.45L51.14,224.95L76.71,236.47L102.29,226.02L127.86,279.74L153.43,325.17L179,293.27L204.57,225.14L230.14,219.4L255.71,236.66L281.29,240.21L306.86,278.2L332.43,334.27L358,272.16L383.57,205.47L409.14,243.38L434.71,300.52L460.29,349.76L485.86,376.49L511.43,399L537,374.4" class="js-fill js-tozero" style="fill:purple;fill-opacity:.3;stroke-width:0"/><path style="vector-effect:non-scaling-stroke;fill:none;stroke:purple;stroke-opacity:1;stroke-width:1.3px;opacity:1" d="M0,299.76L25.57,288.45L51.14,224.95L76.71,236.47L102.29,226.02L127.86,279.74L153.43,325.17L179,293.27L204.57,225.14L230.14,219.4L255.71,236.66L281.29,240.21L306.86,278.2L332.43,334.27L358,272.16L383.57,205.47L409.14,243.38L434.71,300.52L460.29,349.76L485.86,376.49L511.43,399L537,374.4" class="js-line"/></g><g class="trace scatter traceda7d03" style="stroke-miterlimit:2"><path d="M537,299.76L0,299.76L0,299.76L25.57,262.82L51.14,187.24L76.71,188.41L102.29,209.35L127.86,226.1L153.43,295.56L179,276.24L204.57,177.05L230.14,182.03L255.71,193.76L281.29,194.91L306.86,210.12L332.43,312.69L358,277.78L383.57,182.9L409.14,194.68L434.71,244.3L460.29,275.81L485.86,293.93L511.43,364.85L537,339.03" class="js-fill js-tozero" style="fill:#db4052;fill-opacity:.3;stroke-width:0"/><path style="vector-effect:non-scaling-stroke;fill:none;stroke:#db4052;stroke-opacity:1;stroke-width:1.3px;opacity:1" d="M0,299.76L25.57,262.82L51.14,187.24L76.71,188.41L102.29,209.35L127.86,226.1L153.43,295.56L179,276.24L204.57,177.05L230.14,182.03L255.71,193.76L281.29,194.91L306.86,210.12L332.43,312.69L358,277.78L383.57,182.9L409.14,194.68L434.71,244.3L460.29,275.81L485.86,293.93L511.43,364.85L537,339.03" class="js-line"/></g></g></g><path style="fill:none;stroke-width:1px;stroke:#000;stroke-opacity:0" d="M-1,420.5H537" class="xlines-above crisp" transform="translate(80,100)"/><path style="fill:none;stroke-width:1px;stroke:#000;stroke-opacity:0" d="M-0.5,0V420" class="ylines-above crisp" transform="translate(80,100)"/><g class="xaxislayer-above"><g class="xtick"><text x="0" y="433" text-anchor="middle" transform="translate(80,100) translate(51.14,0)" style="font-family:TOBESTRIPPEDOpen\ SansTOBESTRIPPED,verdana,arial,sans-serif;font-size:12px;fill:#4d5663;fill-opacity:1;white-space:pre"><tspan x="0" y="433" class="line" dy="0em">Apr 3</tspan><tspan x="0" y="433" class="line" dy="1.3em">2018</tspan></text></g><g class="xtick"><text x="0" y="433" text-anchor="middle" transform="translate(80,100) translate(127.86,0)" style="font-family:TOBESTRIPPEDOpen\ SansTOBESTRIPPED,verdana,arial,sans-serif;font-size:12px;fill:#4d5663;fill-opacity:1;white-space:pre">Apr 6</text></g><g class="xtick"><text x="0" y="433" text-anchor="middle" transform="translate(80,100) translate(204.57,0)" style="font-family:TOBESTRIPPEDOpen\ SansTOBESTRIPPED,verdana,arial,sans-serif;font-size:12px;fill:#4d5663;fill-opacity:1;white-space:pre">Apr 9</text></g><g class="xtick"><text x="0" y="433" text-anchor="middle" transform="translate(80,100) translate(281.29,0)" style="font-family:TOBESTRIPPEDOpen\ SansTOBESTRIPPED,verdana,arial,sans-serif;font-size:12px;fill:#4d5663;fill-opacity:1;white-space:pre">Apr 12</text></g><g class="xtick"><text x="0" y="433" text-anchor="middle" transform="translate(80,100) translate(358,0)" style="font-family:TOBESTRIPPEDOpen\ SansTOBESTRIPPED,verdana,arial,sans-serif;font-size:12px;fill:#4d5663;fill-opacity:1;white-space:pre">Apr 15</text></g><g class="xtick"><text x="0" y="433" text-anchor="middle" transform="translate(80,100) translate(434.71,0)" style="font-family:TOBESTRIPPEDOpen\ SansTOBESTRIPPED,verdana,arial,sans-serif;font-size:12px;fill:#4d5663;fill-opacity:1;white-space:pre">Apr 18</text></g><g class="xtick"><text x="0" y="433" text-anchor="middle" transform="translate(80,100) translate(511.43,0)" style="font-family:TOBESTRIPPEDOpen\ SansTOBESTRIPPED,verdana,arial,sans-serif;font-size:12px;fill:#4d5663;fill-opacity:1;white-space:pre">Apr 21</text></g></g><g class="yaxislayer-above"><g class="ytick"><text x="-1" y="4.2" text-anchor="end" transform="translate(80,100) translate(0,393.52)" style="font-family:TOBESTRIPPEDOpen\ SansTOBESTRIPPED,verdana,arial,sans-serif;font-size:12px;fill:#4d5663;fill-opacity:1;white-space:pre">−50</text></g><g class="ytick"><text x="-1" y="4.2" text-anchor="end" transform="translate(80,100) translate(0,299.76)" style="font-family:TOBESTRIPPEDOpen\ SansTOBESTRIPPED,verdana,arial,sans-serif;font-size:12px;fill:#4d5663;fill-opacity:1;white-space:pre">0</text></g><g class="ytick"><text x="-1" y="4.2" text-anchor="end" transform="translate(80,100) translate(0,206)" style="font-family:TOBESTRIPPEDOpen\ SansTOBESTRIPPED,verdana,arial,sans-serif;font-size:12px;fill:#4d5663;fill-opacity:1;white-space:pre">50</text></g><g class="ytick"><text x="-1" y="4.2" text-anchor="end" transform="translate(80,100) translate(0,112.24)" style="font-family:TOBESTRIPPEDOpen\ SansTOBESTRIPPED,verdana,arial,sans-serif;font-size:12px;fill:#4d5663;fill-opacity:1;white-space:pre">100</text></g><g class="ytick"><text x="-1" y="4.2" text-anchor="end" transform="translate(80,100) translate(0,18.47)" style="font-family:TOBESTRIPPEDOpen\ SansTOBESTRIPPED,verdana,arial,sans-serif;font-size:12px;fill:#4d5663;fill-opacity:1;white-space:pre">150</text></g></g></g></g><defs id="topdefs-2bfc57"><clipPath id="legend2bfc57"><rect width="160" height="105" x="0" y="0"/></clipPath></defs><g class="infolayer"><g class="g-gtitle"><text style="font-family:TOBESTRIPPEDOpen\ SansTOBESTRIPPED,verdana,arial,sans-serif;font-size:17px;fill:#4d5663;opacity:1;font-weight:400;white-space:pre" x="400" y="50" class="gtitle" text-anchor="middle">The rise of Google.COM</text></g><g class="legend" pointer-events="all" transform="translate(627.74, 100)"><rect style="stroke:#444;stroke-opacity:1;fill:#f5f6f9;fill-opacity:1;stroke-width:0" width="160" height="105" x="0" y="0" class="bg" shape-rendering="crispEdges"/><g class="scrollbox" clip-path="url(#legend2bfc57)" transform="translate(0, 0)"><g class="groups"><g class="traces" transform="translate(0, 14.5)" style="opacity:1"><g class="layers"><g class="legendfill"><path d="M5,0h30v6h-30z" class="js-fill" style="stroke-width:0;fill:#f93;fill-opacity:.3"/></g><g class="legendlines"><path d="M5,0h30" class="js-line" style="fill:none;stroke:#f93;stroke-opacity:1;stroke-width:1.3px"/></g></g><text style="font-family:TOBESTRIPPEDOpen\ SansTOBESTRIPPED,verdana,arial,sans-serif;font-size:12px;fill:#4d5663;fill-opacity:1;white-space:pre" x="40" y="4.68" class="legendtext user-select-none" text-anchor="start">www.google.com</text><rect style="cursor:pointer;fill:#000;fill-opacity:0" width="200" height="19" x="0" y="-9.5" class="legendtoggle" pointer-events="all"/></g><g class="traces" transform="translate(0, 33.5)" style="opacity:1"><g class="layers"><g class="legendfill"><path d="M5,0h30v6h-30z" class="js-fill" style="stroke-width:0;fill:#3780bf;fill-opacity:.3"/></g><g class="legendlines"><path d="M5,0h30" class="js-line" style="fill:none;stroke:#3780bf;stroke-opacity:1;stroke-width:1.3px"/></g></g><text style="font-family:TOBESTRIPPEDOpen\ SansTOBESTRIPPED,verdana,arial,sans-serif;font-size:12px;fill:#4d5663;fill-opacity:1;white-space:pre" x="40" y="4.68" class="legendtext user-select-none" text-anchor="start">www.google.de</text><rect style="cursor:pointer;fill:#000;fill-opacity:0" width="200" height="19" x="0" y="-9.5" class="legendtoggle" pointer-events="all"/></g><g class="traces" transform="translate(0, 52.5)" style="opacity:1"><g class="layers"><g class="legendfill"><path d="M5,0h30v6h-30z" class="js-fill" style="stroke-width:0;fill:#32ab60;fill-opacity:.3"/></g><g class="legendlines"><path d="M5,0h30" class="js-line" style="fill:none;stroke:#32ab60;stroke-opacity:1;stroke-width:1.3px"/></g></g><text style="font-family:TOBESTRIPPEDOpen\ SansTOBESTRIPPED,verdana,arial,sans-serif;font-size:12px;fill:#4d5663;fill-opacity:1;white-space:pre" x="40" y="4.68" class="legendtext user-select-none" text-anchor="start">www.google.fr</text><rect style="cursor:pointer;fill:#000;fill-opacity:0" width="200" height="19" x="0" y="-9.5" class="legendtoggle" pointer-events="all"/></g><g class="traces" transform="translate(0, 71.5)" style="opacity:1"><g class="layers"><g class="legendfill"><path d="M5,0h30v6h-30z" class="js-fill" style="stroke-width:0;fill:purple;fill-opacity:.3"/></g><g class="legendlines"><path d="M5,0h30" class="js-line" style="fill:none;stroke:purple;stroke-opacity:1;stroke-width:1.3px"/></g></g><text style="font-family:TOBESTRIPPEDOpen\ SansTOBESTRIPPED,verdana,arial,sans-serif;font-size:12px;fill:#4d5663;fill-opacity:1;white-space:pre" x="40" y="4.68" class="legendtext user-select-none" text-anchor="start">www.google.at</text><rect style="cursor:pointer;fill:#000;fill-opacity:0" width="200" height="19" x="0" y="-9.5" class="legendtoggle" pointer-events="all"/></g><g class="traces" transform="translate(0, 90.5)" style="opacity:1"><g class="layers"><g class="legendfill"><path d="M5,0h30v6h-30z" class="js-fill" style="stroke-width:0;fill:#db4052;fill-opacity:.3"/></g><g class="legendlines"><path d="M5,0h30" class="js-line" style="fill:none;stroke:#db4052;stroke-opacity:1;stroke-width:1.3px"/></g></g><text style="font-family:TOBESTRIPPEDOpen\ SansTOBESTRIPPED,verdana,arial,sans-serif;font-size:12px;fill:#4d5663;fill-opacity:1;white-space:pre" x="40" y="4.68" class="legendtext user-select-none" text-anchor="start">www.google.co.uk</text><rect style="cursor:pointer;fill:#000;fill-opacity:0" width="200" height="19" x="0" y="-9.5" class="legendtoggle" pointer-events="all"/></g></g></g><rect width="0" height="0" class="scrollbar" rx="20" ry="2" style="fill:#808ba4;fill-opacity:1"/></g><g class="g-ytitle"><text style="font-family:TOBESTRIPPEDOpen\ SansTOBESTRIPPED,verdana,arial,sans-serif;font-size:14px;fill:#4d5663;opacity:1;font-weight:400;white-space:pre" x="42" y="310" class="ytitle" text-anchor="middle" transform="rotate(-90,42,310) translate(0, 0)">Percentage Change since April 1st</text></g></g></svg>