<svg xmlns="http://www.w3.org/2000/svg" xmlns:xlink="http://www.w3.org/1999/xlink" width="800" height="200" class="main-svg" viewBox="0 0 800 200"><rect width="800" height="200" x="0" y="0" style="fill:#fff;fill-opacity:1"/><defs id="defs-a63c77"><g class="clips"><clipPath id="clipa63c77xyplot" class="plotclip"><rect width="680" height="170"/></clipPath><clipPath id="clipa63c77x" class="axesclip"><rect width="680" height="200" x="60" y="0"/></clipPath><clipPath id="clipa63c77y" class="axesclip"><rect width="800" height="170" x="0" y="0"/></clipPath><clipPath id="clipa63c77xy" class="axesclip"><rect width="680" height="170" x="60" y="0"/></clipPath></g></defs><g class="bglayer"><rect width="690" height="180" x="55" y="-5" class="bg" style="fill:#fff;fill-opacity:1;stroke-width:0"/></g><g class="cartesianlayer"><g class="subplot xy"><g class="gridlayer"><path d="M0,0h680" class="ygrid crisp" transform="translate(60,0) translate(0,105.67)" style="stroke:#eee;stroke-opacity:1;stroke-width:1px"/><path d="M0,0h680" class="ygrid crisp" transform="translate(60,0) translate(0,41.34)" style="stroke:#eee;stroke-opacity:1;stroke-width:1px"/></g><g class="zerolinelayer"><path d="M0,0h680" class="yzl zl crisp" transform="translate(60,0) translate(0,170)" style="stroke:#444;stroke-opacity:1;stroke-width:1px"/></g><path class="xlines-below"/><path class="ylines-below"/><g class="plot" clip-path="url(#clipa63c77xyplot)" transform="translate(60, 0)"><g class="barlayer"><g class="trace bars" style="opacity:1"><g class="points"><g class="point"><path style="vector-effect:non-scaling-stroke;stroke-width:2px;fill:#a069ab;fill-opacity:1;stroke:#222;stroke-opacity:1" d="M22.67,170V105.05H204V170Z"/></g><g class="point"><path style="vector-effect:non-scaling-stroke;stroke-width:2px;fill:#9564c4;fill-opacity:1;stroke:#222;stroke-opacity:1" d="M249.33,170V40.75H430.67V170Z"/></g><g class="point"><path style="vector-effect:non-scaling-stroke;stroke-width:2px;fill:#6564c4;fill-opacity:1;stroke:#222;stroke-opacity:1" d="M476,170V8.5H657.33V170Z"/></g></g></g></g></g><path style="fill:none;stroke-width:1px;stroke:#000;stroke-opacity:0" d="M-6,175.5H680" class="xlines-above crisp" transform="translate(60,0)"/><path style="fill:none;stroke-width:1px;stroke:#000;stroke-opacity:0" d="M-5.5,0V175" class="ylines-above crisp" transform="translate(60,0)"/><g class="xaxislayer-above"><g class="xtick"><text x="0" y="188" text-anchor="middle" transform="translate(60,0) translate(113.33,0)" style="font-family:TOBESTRIPPEDOpen\ SansTOBESTRIPPED,verdana,arial,sans-serif;font-size:12px;fill:#444;fill-opacity:1;white-space:pre">Jan 2018</text></g><g class="xtick"><text x="0" y="188" text-anchor="middle" transform="translate(60,0) translate(340,0)" style="font-family:TOBESTRIPPEDOpen\ SansTOBESTRIPPED,verdana,arial,sans-serif;font-size:12px;fill:#444;fill-opacity:1;white-space:pre">Feb 2018</text></g><g class="xtick"><text x="0" y="188" text-anchor="middle" transform="translate(60,0) translate(566.67,0)" style="font-family:TOBESTRIPPEDOpen\ SansTOBESTRIPPED,verdana,arial,sans-serif;font-size:12px;fill:#444;fill-opacity:1;white-space:pre">Mar 2018</text></g></g><g class="yaxislayer-above"><g class="ytick"><text x="-6" y="4.2" text-anchor="end" transform="translate(60,0) translate(0,170)" style="font-family:TOBESTRIPPEDOpen\ SansTOBESTRIPPED,verdana,arial,sans-serif;font-size:12px;fill:#444;fill-opacity:1;white-space:pre">0</text></g><g class="ytick"><text x="-6" y="4.2" text-anchor="end" transform="translate(60,0) translate(0,105.67)" style="font-family:TOBESTRIPPEDOpen\ SansTOBESTRIPPED,verdana,arial,sans-serif;font-size:12px;fill:#444;fill-opacity:1;white-space:pre">10</text></g><g class="ytick"><text x="-6" y="4.2" text-anchor="end" transform="translate(60,0) translate(0,41.34)" style="font-family:TOBESTRIPPEDOpen\ SansTOBESTRIPPED,verdana,arial,sans-serif;font-size:12px;fill:#444;fill-opacity:1;white-space:pre">20</text></g></g></g></g></svg>