<svg xmlns="http://www.w3.org/2000/svg" xmlns:xlink="http://www.w3.org/1999/xlink" width="800" height="600" class="main-svg" viewBox="0 0 800 600"><rect width="800" height="600" x="0" y="0" style="fill:#fff;fill-opacity:1"/><defs id="defs-a27a81"><g class="clips"><clipPath id="clipa27a81xyplot" class="plotclip"><rect width="680" height="558"/></clipPath><clipPath id="clipa27a81x" class="axesclip"><rect width="680" height="600" x="60" y="0"/></clipPath><clipPath id="clipa27a81y" class="axesclip"><rect width="800" height="558" x="0" y="12"/></clipPath><clipPath id="clipa27a81xy" class="axesclip"><rect width="680" height="558" x="60" y="12"/></clipPath></g></defs><g class="bglayer"><rect width="690" height="568" x="55" y="7" class="bg" style="fill:#fff;fill-opacity:1;stroke-width:0"/></g><g class="cartesianlayer"><g class="subplot xy"><g class="gridlayer"><path d="M0,0v558" class="xgrid crisp" transform="translate(60,12) translate(37.75,0)" style="stroke:#eee;stroke-opacity:1;stroke-width:1px"/><path d="M0,0v558" class="xgrid crisp" transform="translate(60,12) translate(159.05,0)" style="stroke:#eee;stroke-opacity:1;stroke-width:1px"/><path d="M0,0v558" class="xgrid crisp" transform="translate(60,12) translate(282.33,0)" style="stroke:#eee;stroke-opacity:1;stroke-width:1px"/><path d="M0,0v558" class="xgrid crisp" transform="translate(60,12) translate(403.63,0)" style="stroke:#eee;stroke-opacity:1;stroke-width:1px"/><path d="M0,0v558" class="xgrid crisp" transform="translate(60,12) translate(524.93,0)" style="stroke:#eee;stroke-opacity:1;stroke-width:1px"/><path d="M0,0v558" class="xgrid crisp" transform="translate(60,12) translate(642.25,0)" style="stroke:#eee;stroke-opacity:1;stroke-width:1px"/><path d="M0,0h680" class="ygrid crisp" transform="translate(60,12) translate(0,525.75)" style="stroke:#eee;stroke-opacity:1;stroke-width:1px"/><path d="M0,0h680" class="ygrid crisp" transform="translate(60,12) translate(0,433.68)" style="stroke:#eee;stroke-opacity:1;stroke-width:1px"/><path d="M0,0h680" class="ygrid crisp" transform="translate(60,12) translate(0,341.61)" style="stroke:#eee;stroke-opacity:1;stroke-width:1px"/><path d="M0,0h680" class="ygrid crisp" transform="translate(60,12) translate(0,249.54)" style="stroke:#eee;stroke-opacity:1;stroke-width:1px"/><path d="M0,0h680" class="ygrid crisp" transform="translate(60,12) translate(0,157.47)" style="stroke:#eee;stroke-opacity:1;stroke-width:1px"/><path d="M0,0h680" class="ygrid crisp" transform="translate(60,12) translate(0,65.4)" style="stroke:#eee;stroke-opacity:1;stroke-width:1px"/></g><path class="xlines-below"/><path class="ylines-below"/><g class="plot" clip-path="url(#clipa27a81xyplot)" transform="translate(60, 12)"><g class="scatterlayer"><g class="trace scatter trace98e4a3" style="stroke-miterlimit:2;opacity:1"><path style="vector-effect:non-scaling-stroke;fill:none;stroke:#9ebcda;stroke-opacity:1;stroke-width:4px;opacity:1" d="M37.75,525.75L99.39,474.19L159.05,446.57L220.69,424.47L282.33,376.6L403.63,332.4L463.29,321.35L524.93,302.94L586.57,273.48L642.25,253.22" class="js-line"/><g class="points"><path d="M3,0A3,3 0 1,1 0,-3A3,3 0 0,1 3,0Z" class="point" transform="translate(37.75,525.75)" style="opacity:1;stroke-width:0;fill:#9ebcda;fill-opacity:1"/><path d="M3,0A3,3 0 1,1 0,-3A3,3 0 0,1 3,0Z" class="point" transform="translate(99.39,474.19)" style="opacity:1;stroke-width:0;fill:#9ebcda;fill-opacity:1"/><path d="M3,0A3,3 0 1,1 0,-3A3,3 0 0,1 3,0Z" class="point" transform="translate(159.05,446.57)" style="opacity:1;stroke-width:0;fill:#9ebcda;fill-opacity:1"/><path d="M3,0A3,3 0 1,1 0,-3A3,3 0 0,1 3,0Z" class="point" transform="translate(220.69,424.47)" style="opacity:1;stroke-width:0;fill:#9ebcda;fill-opacity:1"/><path d="M3,0A3,3 0 1,1 0,-3A3,3 0 0,1 3,0Z" class="point" transform="translate(282.33,376.6)" style="opacity:1;stroke-width:0;fill:#9ebcda;fill-opacity:1"/><path d="M3,0A3,3 0 1,1 0,-3A3,3 0 0,1 3,0Z" class="point" transform="translate(341.99,354.5)" style="opacity:1;stroke-width:0;fill:#9ebcda;fill-opacity:1"/><path d="M3,0A3,3 0 1,1 0,-3A3,3 0 0,1 3,0Z" class="point" transform="translate(403.63,332.4)" style="opacity:1;stroke-width:0;fill:#9ebcda;fill-opacity:1"/><path d="M3,0A3,3 0 1,1 0,-3A3,3 0 0,1 3,0Z" class="point" transform="translate(463.29,321.35)" style="opacity:1;stroke-width:0;fill:#9ebcda;fill-opacity:1"/><path d="M3,0A3,3 0 1,1 0,-3A3,3 0 0,1 3,0Z" class="point" transform="translate(524.93,302.94)" style="opacity:1;stroke-width:0;fill:#9ebcda;fill-opacity:1"/><path d="M3,0A3,3 0 1,1 0,-3A3,3 0 0,1 3,0Z" class="point" transform="translate(586.57,273.48)" style="opacity:1;stroke-width:0;fill:#9ebcda;fill-opacity:1"/><path d="M3,0A3,3 0 1,1 0,-3A3,3 0 0,1 3,0Z" class="point" transform="translate(642.25,253.22)" style="opacity:1;stroke-width:0;fill:#9ebcda;fill-opacity:1"/></g></g><g class="trace scatter trace3df2a8" style="stroke-miterlimit:2;opacity:1"><path style="vector-effect:non-scaling-stroke;fill:none;stroke:#a069ab;stroke-opacity:1;stroke-width:4px;opacity:1" d="M37.75,525.75L99.39,459.46L159.05,431.84L220.69,409.74L282.33,345.29L341.99,301.1L403.63,266.11L463.29,258.74L524.93,205.34L586.57,102.22L642.25,32.25" class="js-line"/><g class="points"><path d="M3,0A3,3 0 1,1 0,-3A3,3 0 0,1 3,0Z" class="point" transform="translate(37.75,525.75)" style="opacity:1;stroke-width:0;fill:#a069ab;fill-opacity:1"/><path d="M3,0A3,3 0 1,1 0,-3A3,3 0 0,1 3,0Z" class="point" transform="translate(99.39,459.46)" style="opacity:1;stroke-width:0;fill:#a069ab;fill-opacity:1"/><path d="M3,0A3,3 0 1,1 0,-3A3,3 0 0,1 3,0Z" class="point" transform="translate(159.05,431.84)" style="opacity:1;stroke-width:0;fill:#a069ab;fill-opacity:1"/><path d="M3,0A3,3 0 1,1 0,-3A3,3 0 0,1 3,0Z" class="point" transform="translate(220.69,409.74)" style="opacity:1;stroke-width:0;fill:#a069ab;fill-opacity:1"/><path d="M3,0A3,3 0 1,1 0,-3A3,3 0 0,1 3,0Z" class="point" transform="translate(282.33,345.29)" style="opacity:1;stroke-width:0;fill:#a069ab;fill-opacity:1"/><path d="M3,0A3,3 0 1,1 0,-3A3,3 0 0,1 3,0Z" class="point" transform="translate(341.99,301.1)" style="opacity:1;stroke-width:0;fill:#a069ab;fill-opacity:1"/><path d="M3,0A3,3 0 1,1 0,-3A3,3 0 0,1 3,0Z" class="point" transform="translate(403.63,266.11)" style="opacity:1;stroke-width:0;fill:#a069ab;fill-opacity:1"/><path d="M3,0A3,3 0 1,1 0,-3A3,3 0 0,1 3,0Z" class="point" transform="translate(463.29,258.74)" style="opacity:1;stroke-width:0;fill:#a069ab;fill-opacity:1"/><path d="M3,0A3,3 0 1,1 0,-3A3,3 0 0,1 3,0Z" class="point" transform="translate(524.93,205.34)" style="opacity:1;stroke-width:0;fill:#a069ab;fill-opacity:1"/><path d="M3,0A3,3 0 1,1 0,-3A3,3 0 0,1 3,0Z" class="point" transform="translate(586.57,102.22)" style="opacity:1;stroke-width:0;fill:#a069ab;fill-opacity:1"/><path d="M3,0A3,3 0 1,1 0,-3A3,3 0 0,1 3,0Z" class="point" transform="translate(642.25,32.25)" style="opacity:1;stroke-width:0;fill:#a069ab;fill-opacity:1"/></g></g></g></g><path style="fill:none;stroke-width:1px;stroke:#000;stroke-opacity:0" d="M-6,563.5H680" class="xlines-above crisp" transform="translate(60,12)"/><path style="fill:none;stroke-width:1px;stroke:#000;stroke-opacity:0" d="M-5.5,0V563" class="ylines-above crisp" transform="translate(60,12)"/><g class="xaxislayer-above"><g class="xtick"><text x="0" y="576" text-anchor="middle" transform="translate(60,12) translate(37.75,0)" style="font-family:TOBESTRIPPEDOpen\ SansTOBESTRIPPED,verdana,arial,sans-serif;font-size:12px;fill:#444;fill-opacity:1;white-space:pre">May 2017</text></g><g class="xtick"><text x="0" y="576" text-anchor="middle" transform="translate(60,12) translate(159.05,0)" style="font-family:TOBESTRIPPEDOpen\ SansTOBESTRIPPED,verdana,arial,sans-serif;font-size:12px;fill:#444;fill-opacity:1;white-space:pre">Jul 2017</text></g><g class="xtick"><text x="0" y="576" text-anchor="middle" transform="translate(60,12) translate(282.33,0)" style="font-family:TOBESTRIPPEDOpen\ SansTOBESTRIPPED,verdana,arial,sans-serif;font-size:12px;fill:#444;fill-opacity:1;white-space:pre">Sep 2017</text></g><g class="xtick"><text x="0" y="576" text-anchor="middle" transform="translate(60,12) translate(403.63,0)" style="font-family:TOBESTRIPPEDOpen\ SansTOBESTRIPPED,verdana,arial,sans-serif;font-size:12px;fill:#444;fill-opacity:1;white-space:pre">Nov 2017</text></g><g class="xtick"><text x="0" y="576" text-anchor="middle" transform="translate(60,12) translate(524.93,0)" style="font-family:TOBESTRIPPEDOpen\ SansTOBESTRIPPED,verdana,arial,sans-serif;font-size:12px;fill:#444;fill-opacity:1;white-space:pre">Jan 2018</text></g><g class="xtick"><text x="0" y="576" text-anchor="middle" transform="translate(60,12) translate(642.25,0)" style="font-family:TOBESTRIPPEDOpen\ SansTOBESTRIPPED,verdana,arial,sans-serif;font-size:12px;fill:#444;fill-opacity:1;white-space:pre">Mar 2018</text></g></g><g class="yaxislayer-above"><g class="ytick"><text x="-6" y="4.2" text-anchor="end" transform="translate(60,12) translate(0,525.75)" style="font-family:TOBESTRIPPEDOpen\ SansTOBESTRIPPED,verdana,arial,sans-serif;font-size:12px;fill:#444;fill-opacity:1;white-space:pre">600</text></g><g class="ytick"><text x="-6" y="4.2" text-anchor="end" transform="translate(60,12) translate(0,433.68)" style="font-family:TOBESTRIPPEDOpen\ SansTOBESTRIPPED,verdana,arial,sans-serif;font-size:12px;fill:#444;fill-opacity:1;white-space:pre">650</text></g><g class="ytick"><text x="-6" y="4.2" text-anchor="end" transform="translate(60,12) translate(0,341.61)" style="font-family:TOBESTRIPPEDOpen\ SansTOBESTRIPPED,verdana,arial,sans-serif;font-size:12px;fill:#444;fill-opacity:1;white-space:pre">700</text></g><g class="ytick"><text x="-6" y="4.2" text-anchor="end" transform="translate(60,12) translate(0,249.54)" style="font-family:TOBESTRIPPEDOpen\ SansTOBESTRIPPED,verdana,arial,sans-serif;font-size:12px;fill:#444;fill-opacity:1;white-space:pre">750</text></g><g class="ytick"><text x="-6" y="4.2" text-anchor="end" transform="translate(60,12) translate(0,157.47)" style="font-family:TOBESTRIPPEDOpen\ SansTOBESTRIPPED,verdana,arial,sans-serif;font-size:12px;fill:#444;fill-opacity:1;white-space:pre">800</text></g><g class="ytick"><text x="-6" y="4.2" text-anchor="end" transform="translate(60,12) translate(0,65.4)" style="font-family:TOBESTRIPPEDOpen\ SansTOBESTRIPPED,verdana,arial,sans-serif;font-size:12px;fill:#444;fill-opacity:1;white-space:pre">850</text></g></g></g></g><defs id="topdefs-a27a81"><clipPath id="legenda27a81"><rect width="202" height="29" x="0" y="0"/></clipPath></defs><g class="infolayer"><g class="legend" pointer-events="all" transform="translate(94, 12)"><rect style="stroke:#444;stroke-opacity:1;fill:#e2e2e2;fill-opacity:1;stroke-width:0" width="202" height="29" x="0" y="0" class="bg" shape-rendering="crispEdges"/><g class="scrollbox" clip-path="url(#legenda27a81)" transform="translate(0, 0)"><g class="groups"><g class="traces" transform="translate(0, 14.5)" style="opacity:1"><g class="layers" style="opacity:1"><g class="legendlines"><path d="M5,0h30" class="js-line" style="fill:none;stroke:#9ebcda;stroke-opacity:1;stroke-width:4px"/></g><g class="legendsymbols"><g class="legendpoints"><path d="M3,0A3,3 0 1,1 0,-3A3,3 0 0,1 3,0Z" class="scatterpts" transform="translate(20,0)" style="opacity:1;stroke-width:0;fill:#9ebcda;fill-opacity:1"/></g></g></g><text style="font-family:TOBESTRIPPEDOpen\ SansTOBESTRIPPED,verdana,arial,sans-serif;font-size:12px;fill:#444;fill-opacity:1;white-space:pre" x="40" y="4.68" class="legendtext user-select-none" text-anchor="start">Sites</text><rect style="cursor:pointer;fill:#000;fill-opacity:0" width="202" height="19" x="0" y="-9.5" class="legendtoggle" pointer-events="all"/></g><g class="traces" transform="translate(100.58332824707031, 14.5)" style="opacity:1"><g class="layers" style="opacity:1"><g class="legendlines"><path d="M5,0h30" class="js-line" style="fill:none;stroke:#a069ab;stroke-opacity:1;stroke-width:4px"/></g><g class="legendsymbols"><g class="legendpoints"><path d="M3,0A3,3 0 1,1 0,-3A3,3 0 0,1 3,0Z" class="scatterpts" transform="translate(20,0)" style="opacity:1;stroke-width:0;fill:#a069ab;fill-opacity:1"/></g></g></g><text style="font-family:TOBESTRIPPEDOpen\ SansTOBESTRIPPED,verdana,arial,sans-serif;font-size:12px;fill:#444;fill-opacity:1;white-space:pre" x="40" y="4.68" class="legendtext user-select-none" text-anchor="start">Trackers</text><rect style="cursor:pointer;fill:#000;fill-opacity:0" width="202" height="19" x="0" y="-9.5" class="legendtoggle" pointer-events="all"/></g></g></g><rect width="0" height="0" class="scrollbar" rx="20" ry="2" style="fill:#808ba4;fill-opacity:1"/></g></g></svg>