<svg xmlns="http://www.w3.org/2000/svg" xmlns:xlink="http://www.w3.org/1999/xlink" width="800" height="600" class="main-svg" viewBox="0 0 800 600"><rect width="800" height="600" x="0" y="0" style="fill:#fff;fill-opacity:1"/><defs id="defs-c57e39"><g class="clips"><clipPath id="clipc57e39xyplot" class="plotclip"><rect width="680" height="570"/></clipPath><clipPath id="clipc57e39x" class="axesclip"><rect width="680" height="600" x="60" y="0"/></clipPath><clipPath id="clipc57e39y" class="axesclip"><rect width="800" height="570" x="0" y="0"/></clipPath><clipPath id="clipc57e39xy" class="axesclip"><rect width="680" height="570" x="60" y="0"/></clipPath></g></defs><g class="bglayer"><rect width="690" height="580" x="55" y="-5" class="bg" style="fill:#fff;fill-opacity:1;stroke-width:0"/></g><g class="cartesianlayer"><g class="subplot xy"><g class="gridlayer"><path d="M0,0h680" class="ygrid crisp" transform="translate(60,0) translate(0,491.29)" style="stroke:#eee;stroke-opacity:1;stroke-width:1px"/><path d="M0,0h680" class="ygrid crisp" transform="translate(60,0) translate(0,428.14)" style="stroke:#eee;stroke-opacity:1;stroke-width:1px"/><path d="M0,0h680" class="ygrid crisp" transform="translate(60,0) translate(0,364.99)" style="stroke:#eee;stroke-opacity:1;stroke-width:1px"/><path d="M0,0h680" class="ygrid crisp" transform="translate(60,0) translate(0,301.84)" style="stroke:#eee;stroke-opacity:1;stroke-width:1px"/><path d="M0,0h680" class="ygrid crisp" transform="translate(60,0) translate(0,238.69)" style="stroke:#eee;stroke-opacity:1;stroke-width:1px"/><path d="M0,0h680" class="ygrid crisp" transform="translate(60,0) translate(0,175.54)" style="stroke:#eee;stroke-opacity:1;stroke-width:1px"/><path d="M0,0h680" class="ygrid crisp" transform="translate(60,0) translate(0,112.39)" style="stroke:#eee;stroke-opacity:1;stroke-width:1px"/><path d="M0,0h680" class="ygrid crisp" transform="translate(60,0) translate(0,49.24)" style="stroke:#eee;stroke-opacity:1;stroke-width:1px"/></g><g class="zerolinelayer"><path d="M0,0h680" class="yzl zl crisp" transform="translate(60,0) translate(0,554.44)" style="stroke:#444;stroke-opacity:1;stroke-width:1px"/></g><path class="xlines-below"/><path class="ylines-below"/><g class="plot" clip-path="url(#clipc57e39xyplot)" transform="translate(60, 0)"><g class="boxlayer"><g class="trace boxes" style="opacity:1"><path style="vector-effect:non-scaling-stroke;stroke-width:2px;stroke:#c44e52;stroke-opacity:1;fill:#c44e52;fill-opacity:.5" d="M57.8,441.74H168.87M57.8,493.73H168.87V377.15H57.8ZM113.33,493.73V541.5M113.33,377.15V204.22M85.57,541.5H141.1M85.57,204.22H141.1" class="box"/><g class="points"><path d="M3,0A3,3 0 1,1 0,-3A3,3 0 0,1 3,0Z" class="point" transform="translate(113.33,194.92)" style="opacity:1;stroke-width:3px;fill:#c44e52;fill-opacity:1;stroke:#c44e52;stroke-opacity:1"/><path d="M3,0A3,3 0 1,1 0,-3A3,3 0 0,1 3,0Z" class="point" transform="translate(113.33,191.32)" style="opacity:1;stroke-width:3px;fill:#c44e52;fill-opacity:1;stroke:#c44e52;stroke-opacity:1"/><path d="M3,0A3,3 0 1,1 0,-3A3,3 0 0,1 3,0Z" class="point" transform="translate(113.33,187.37)" style="opacity:1;stroke-width:3px;fill:#c44e52;fill-opacity:1;stroke:#c44e52;stroke-opacity:1"/><path d="M3,0A3,3 0 1,1 0,-3A3,3 0 0,1 3,0Z" class="point" transform="translate(113.33,182.38)" style="opacity:1;stroke-width:3px;fill:#c44e52;fill-opacity:1;stroke:#c44e52;stroke-opacity:1"/><path d="M3,0A3,3 0 1,1 0,-3A3,3 0 0,1 3,0Z" class="point" transform="translate(113.33,179.47)" style="opacity:1;stroke-width:3px;fill:#c44e52;fill-opacity:1;stroke:#c44e52;stroke-opacity:1"/><path d="M3,0A3,3 0 1,1 0,-3A3,3 0 0,1 3,0Z" class="point" transform="translate(113.33,174.04)" style="opacity:1;stroke-width:3px;fill:#c44e52;fill-opacity:1;stroke:#c44e52;stroke-opacity:1"/><path d="M3,0A3,3 0 1,1 0,-3A3,3 0 0,1 3,0Z" class="point" transform="translate(113.33,171.14)" style="opacity:1;stroke-width:3px;fill:#c44e52;fill-opacity:1;stroke:#c44e52;stroke-opacity:1"/><path d="M3,0A3,3 0 1,1 0,-3A3,3 0 0,1 3,0Z" class="point" transform="translate(113.33,171.01)" style="opacity:1;stroke-width:3px;fill:#c44e52;fill-opacity:1;stroke:#c44e52;stroke-opacity:1"/><path d="M3,0A3,3 0 1,1 0,-3A3,3 0 0,1 3,0Z" class="point" transform="translate(113.33,166.04)" style="opacity:1;stroke-width:3px;fill:#c44e52;fill-opacity:1;stroke:#c44e52;stroke-opacity:1"/><path d="M3,0A3,3 0 1,1 0,-3A3,3 0 0,1 3,0Z" class="point" transform="translate(113.33,158.36)" style="opacity:1;stroke-width:3px;fill:#c44e52;fill-opacity:1;stroke:#c44e52;stroke-opacity:1"/><path d="M3,0A3,3 0 1,1 0,-3A3,3 0 0,1 3,0Z" class="point" transform="translate(113.33,156.15)" style="opacity:1;stroke-width:3px;fill:#c44e52;fill-opacity:1;stroke:#c44e52;stroke-opacity:1"/><path d="M3,0A3,3 0 1,1 0,-3A3,3 0 0,1 3,0Z" class="point" transform="translate(113.33,151.9)" style="opacity:1;stroke-width:3px;fill:#c44e52;fill-opacity:1;stroke:#c44e52;stroke-opacity:1"/><path d="M3,0A3,3 0 1,1 0,-3A3,3 0 0,1 3,0Z" class="point" transform="translate(113.33,147.59)" style="opacity:1;stroke-width:3px;fill:#c44e52;fill-opacity:1;stroke:#c44e52;stroke-opacity:1"/><path d="M3,0A3,3 0 1,1 0,-3A3,3 0 0,1 3,0Z" class="point" transform="translate(113.33,143.91)" style="opacity:1;stroke-width:3px;fill:#c44e52;fill-opacity:1;stroke:#c44e52;stroke-opacity:1"/><path d="M3,0A3,3 0 1,1 0,-3A3,3 0 0,1 3,0Z" class="point" transform="translate(113.33,128.55)" style="opacity:1;stroke-width:3px;fill:#c44e52;fill-opacity:1;stroke:#c44e52;stroke-opacity:1"/><path d="M3,0A3,3 0 1,1 0,-3A3,3 0 0,1 3,0Z" class="point" transform="translate(113.33,118.65)" style="opacity:1;stroke-width:3px;fill:#c44e52;fill-opacity:1;stroke:#c44e52;stroke-opacity:1"/><path d="M3,0A3,3 0 1,1 0,-3A3,3 0 0,1 3,0Z" class="point" transform="translate(113.33,32.57)" style="opacity:1;stroke-width:3px;fill:#c44e52;fill-opacity:1;stroke:#c44e52;stroke-opacity:1"/><path d="M3,0A3,3 0 1,1 0,-3A3,3 0 0,1 3,0Z" class="point" transform="translate(113.33,28.5)" style="opacity:1;stroke-width:3px;fill:#c44e52;fill-opacity:1;stroke:#c44e52;stroke-opacity:1"/></g></g><g class="trace boxes" style="opacity:1"><path style="vector-effect:non-scaling-stroke;stroke-width:2px;stroke:#55a868;stroke-opacity:1;fill:#55a868;fill-opacity:.5" d="M284.47,448.58H395.53M284.47,497.7H395.53V385.57H284.47ZM340,497.7V541.16M340,385.57V218.75M312.23,541.16H367.77M312.23,218.75H367.77" class="box"/><g class="points"><path d="M3,0A3,3 0 1,1 0,-3A3,3 0 0,1 3,0Z" class="point" transform="translate(340,217.34)" style="opacity:1;stroke-width:3px;fill:#55a868;fill-opacity:1;stroke:#55a868;stroke-opacity:1"/><path d="M3,0A3,3 0 1,1 0,-3A3,3 0 0,1 3,0Z" class="point" transform="translate(340,212.6)" style="opacity:1;stroke-width:3px;fill:#55a868;fill-opacity:1;stroke:#55a868;stroke-opacity:1"/><path d="M3,0A3,3 0 1,1 0,-3A3,3 0 0,1 3,0Z" class="point" transform="translate(340,202.63)" style="opacity:1;stroke-width:3px;fill:#55a868;fill-opacity:1;stroke:#55a868;stroke-opacity:1"/><path d="M3,0A3,3 0 1,1 0,-3A3,3 0 0,1 3,0Z" class="point" transform="translate(340,199.93)" style="opacity:1;stroke-width:3px;fill:#55a868;fill-opacity:1;stroke:#55a868;stroke-opacity:1"/><path d="M3,0A3,3 0 1,1 0,-3A3,3 0 0,1 3,0Z" class="point" transform="translate(340,198.16)" style="opacity:1;stroke-width:3px;fill:#55a868;fill-opacity:1;stroke:#55a868;stroke-opacity:1"/><path d="M3,0A3,3 0 1,1 0,-3A3,3 0 0,1 3,0Z" class="point" transform="translate(340,197.28)" style="opacity:1;stroke-width:3px;fill:#55a868;fill-opacity:1;stroke:#55a868;stroke-opacity:1"/><path d="M3,0A3,3 0 1,1 0,-3A3,3 0 0,1 3,0Z" class="point" transform="translate(340,194.88)" style="opacity:1;stroke-width:3px;fill:#55a868;fill-opacity:1;stroke:#55a868;stroke-opacity:1"/><path d="M3,0A3,3 0 1,1 0,-3A3,3 0 0,1 3,0Z" class="point" transform="translate(340,194.55)" style="opacity:1;stroke-width:3px;fill:#55a868;fill-opacity:1;stroke:#55a868;stroke-opacity:1"/><path d="M3,0A3,3 0 1,1 0,-3A3,3 0 0,1 3,0Z" class="point" transform="translate(340,180.11)" style="opacity:1;stroke-width:3px;fill:#55a868;fill-opacity:1;stroke:#55a868;stroke-opacity:1"/><path d="M3,0A3,3 0 1,1 0,-3A3,3 0 0,1 3,0Z" class="point" transform="translate(340,162.21)" style="opacity:1;stroke-width:3px;fill:#55a868;fill-opacity:1;stroke:#55a868;stroke-opacity:1"/><path d="M3,0A3,3 0 1,1 0,-3A3,3 0 0,1 3,0Z" class="point" transform="translate(340,144.62)" style="opacity:1;stroke-width:3px;fill:#55a868;fill-opacity:1;stroke:#55a868;stroke-opacity:1"/><path d="M3,0A3,3 0 1,1 0,-3A3,3 0 0,1 3,0Z" class="point" transform="translate(340,107.68)" style="opacity:1;stroke-width:3px;fill:#55a868;fill-opacity:1;stroke:#55a868;stroke-opacity:1"/><path d="M3,0A3,3 0 1,1 0,-3A3,3 0 0,1 3,0Z" class="point" transform="translate(340,93.57)" style="opacity:1;stroke-width:3px;fill:#55a868;fill-opacity:1;stroke:#55a868;stroke-opacity:1"/></g></g><g class="trace boxes" style="opacity:1"><path style="vector-effect:non-scaling-stroke;stroke-width:2px;stroke:#4c72b0;stroke-opacity:1;fill:#4c72b0;fill-opacity:.5" d="M511.13,452.79H622.2M511.13,500.92H622.2V396.78H511.13ZM566.67,500.92V541.01M566.67,396.78V243.74M538.9,541.01H594.43M538.9,243.74H594.43" class="box"/><g class="points"><path d="M3,0A3,3 0 1,1 0,-3A3,3 0 0,1 3,0Z" class="point" transform="translate(566.67,232.37)" style="opacity:1;stroke-width:3px;fill:#4c72b0;fill-opacity:1;stroke:#4c72b0;stroke-opacity:1"/><path d="M3,0A3,3 0 1,1 0,-3A3,3 0 0,1 3,0Z" class="point" transform="translate(566.67,228.51)" style="opacity:1;stroke-width:3px;fill:#4c72b0;fill-opacity:1;stroke:#4c72b0;stroke-opacity:1"/><path d="M3,0A3,3 0 1,1 0,-3A3,3 0 0,1 3,0Z" class="point" transform="translate(566.67,223.37)" style="opacity:1;stroke-width:3px;fill:#4c72b0;fill-opacity:1;stroke:#4c72b0;stroke-opacity:1"/><path d="M3,0A3,3 0 1,1 0,-3A3,3 0 0,1 3,0Z" class="point" transform="translate(566.67,221.61)" style="opacity:1;stroke-width:3px;fill:#4c72b0;fill-opacity:1;stroke:#4c72b0;stroke-opacity:1"/><path d="M3,0A3,3 0 1,1 0,-3A3,3 0 0,1 3,0Z" class="point" transform="translate(566.67,217.34)" style="opacity:1;stroke-width:3px;fill:#4c72b0;fill-opacity:1;stroke:#4c72b0;stroke-opacity:1"/><path d="M3,0A3,3 0 1,1 0,-3A3,3 0 0,1 3,0Z" class="point" transform="translate(566.67,217.14)" style="opacity:1;stroke-width:3px;fill:#4c72b0;fill-opacity:1;stroke:#4c72b0;stroke-opacity:1"/><path d="M3,0A3,3 0 1,1 0,-3A3,3 0 0,1 3,0Z" class="point" transform="translate(566.67,213.06)" style="opacity:1;stroke-width:3px;fill:#4c72b0;fill-opacity:1;stroke:#4c72b0;stroke-opacity:1"/><path d="M3,0A3,3 0 1,1 0,-3A3,3 0 0,1 3,0Z" class="point" transform="translate(566.67,202.67)" style="opacity:1;stroke-width:3px;fill:#4c72b0;fill-opacity:1;stroke:#4c72b0;stroke-opacity:1"/><path d="M3,0A3,3 0 1,1 0,-3A3,3 0 0,1 3,0Z" class="point" transform="translate(566.67,167.96)" style="opacity:1;stroke-width:3px;fill:#4c72b0;fill-opacity:1;stroke:#4c72b0;stroke-opacity:1"/><path d="M3,0A3,3 0 1,1 0,-3A3,3 0 0,1 3,0Z" class="point" transform="translate(566.67,157.83)" style="opacity:1;stroke-width:3px;fill:#4c72b0;fill-opacity:1;stroke:#4c72b0;stroke-opacity:1"/><path d="M3,0A3,3 0 1,1 0,-3A3,3 0 0,1 3,0Z" class="point" transform="translate(566.67,127.34)" style="opacity:1;stroke-width:3px;fill:#4c72b0;fill-opacity:1;stroke:#4c72b0;stroke-opacity:1"/></g></g></g></g><path style="fill:none;stroke-width:1px;stroke:#000;stroke-opacity:0" d="M-6,575.5H680" class="xlines-above crisp" transform="translate(60,0)"/><path style="fill:none;stroke-width:1px;stroke:#000;stroke-opacity:0" d="M-5.5,0V575" class="ylines-above crisp" transform="translate(60,0)"/><g class="xaxislayer-above"><g class="xtick"><text x="0" y="588" text-anchor="middle" transform="translate(60,0) translate(113.33,0)" style="font-family:TOBESTRIPPEDOpen\ SansTOBESTRIPPED,verdana,arial,sans-serif;font-size:12px;fill:#444;fill-opacity:1;white-space:pre">Jan 2018</text></g><g class="xtick"><text x="0" y="588" text-anchor="middle" transform="translate(60,0) translate(340,0)" style="font-family:TOBESTRIPPEDOpen\ SansTOBESTRIPPED,verdana,arial,sans-serif;font-size:12px;fill:#444;fill-opacity:1;white-space:pre">Feb 2018</text></g><g class="xtick"><text x="0" y="588" text-anchor="middle" transform="translate(60,0) translate(566.67,0)" style="font-family:TOBESTRIPPEDOpen\ SansTOBESTRIPPED,verdana,arial,sans-serif;font-size:12px;fill:#444;fill-opacity:1;white-space:pre">Mar 2018</text></g></g><g class="yaxislayer-above"><g class="ytick"><text x="-6" y="4.2" text-anchor="end" transform="translate(60,0) translate(0,554.44)" style="font-family:TOBESTRIPPEDOpen\ SansTOBESTRIPPED,verdana,arial,sans-serif;font-size:12px;fill:#444;fill-opacity:1;white-space:pre">0</text></g><g class="ytick"><text x="-6" y="4.2" text-anchor="end" transform="translate(60,0) translate(0,491.29)" style="font-family:TOBESTRIPPEDOpen\ SansTOBESTRIPPED,verdana,arial,sans-serif;font-size:12px;fill:#444;fill-opacity:1;white-space:pre">5</text></g><g class="ytick"><text x="-6" y="4.2" text-anchor="end" transform="translate(60,0) translate(0,428.14)" style="font-family:TOBESTRIPPEDOpen\ SansTOBESTRIPPED,verdana,arial,sans-serif;font-size:12px;fill:#444;fill-opacity:1;white-space:pre">10</text></g><g class="ytick"><text x="-6" y="4.2" text-anchor="end" transform="translate(60,0) translate(0,364.99)" style="font-family:TOBESTRIPPEDOpen\ SansTOBESTRIPPED,verdana,arial,sans-serif;font-size:12px;fill:#444;fill-opacity:1;white-space:pre">15</text></g><g class="ytick"><text x="-6" y="4.2" text-anchor="end" transform="translate(60,0) translate(0,301.84)" style="font-family:TOBESTRIPPEDOpen\ SansTOBESTRIPPED,verdana,arial,sans-serif;font-size:12px;fill:#444;fill-opacity:1;white-space:pre">20</text></g><g class="ytick"><text x="-6" y="4.2" text-anchor="end" transform="translate(60,0) translate(0,238.69)" style="font-family:TOBESTRIPPEDOpen\ SansTOBESTRIPPED,verdana,arial,sans-serif;font-size:12px;fill:#444;fill-opacity:1;white-space:pre">25</text></g><g class="ytick"><text x="-6" y="4.2" text-anchor="end" transform="translate(60,0) translate(0,175.54)" style="font-family:TOBESTRIPPEDOpen\ SansTOBESTRIPPED,verdana,arial,sans-serif;font-size:12px;fill:#444;fill-opacity:1;white-space:pre">30</text></g><g class="ytick"><text x="-6" y="4.2" text-anchor="end" transform="translate(60,0) translate(0,112.39)" style="font-family:TOBESTRIPPEDOpen\ SansTOBESTRIPPED,verdana,arial,sans-serif;font-size:12px;fill:#444;fill-opacity:1;white-space:pre">35</text></g><g class="ytick"><text x="-6" y="4.2" text-anchor="end" transform="translate(60,0) translate(0,49.24)" style="font-family:TOBESTRIPPEDOpen\ SansTOBESTRIPPED,verdana,arial,sans-serif;font-size:12px;fill:#444;fill-opacity:1;white-space:pre">40</text></g></g></g></g></svg>