<svg xmlns="http://www.w3.org/2000/svg" xmlns:xlink="http://www.w3.org/1999/xlink" width="800" height="600" class="main-svg" viewBox="0 0 800 600"><rect width="800" height="600" x="0" y="0" style="fill:#fff;fill-opacity:1"/><defs id="defs-23a892"><g class="clips"><clipPath id="clip23a892xyplot" class="plotclip"><rect width="540" height="560"/></clipPath><clipPath id="clip23a892x" class="axesclip"><rect width="540" height="600" x="200" y="0"/></clipPath><clipPath id="clip23a892y" class="axesclip"><rect width="800" height="560" x="0" y="0"/></clipPath><clipPath id="clip23a892xy" class="axesclip"><rect width="540" height="560" x="200" y="0"/></clipPath></g></defs><g class="bglayer"><rect width="550" height="570" x="195" y="-5" class="bg" style="fill:#fff;fill-opacity:1;stroke-width:0"/></g><g class="cartesianlayer"><g class="subplot xy"><g class="gridlayer"><path d="M0,0v560" class="xgrid crisp" transform="translate(200,0) translate(118.21,0)" style="stroke:#eee;stroke-opacity:1;stroke-width:1px"/><path d="M0,0v560" class="xgrid crisp" transform="translate(200,0) translate(236.41,0)" style="stroke:#eee;stroke-opacity:1;stroke-width:1px"/><path d="M0,0v560" class="xgrid crisp" transform="translate(200,0) translate(354.62,0)" style="stroke:#eee;stroke-opacity:1;stroke-width:1px"/><path d="M0,0v560" class="xgrid crisp" transform="translate(200,0) translate(472.82,0)" style="stroke:#eee;stroke-opacity:1;stroke-width:1px"/></g><g class="zerolinelayer"><path d="M0,0v560" class="xzl zl crisp" transform="translate(200,0) translate(0,0)" style="stroke:#444;stroke-opacity:1;stroke-width:1px"/></g><path class="xlines-below"/><path class="ylines-below"/><g class="plot" clip-path="url(#clip23a892xyplot)" transform="translate(200, 0)"><g class="barlayer"><g class="trace bars" style="opacity:1"><g class="points"><g class="point"><path style="vector-effect:non-scaling-stroke;stroke-width:2px;fill:#9ebcda;fill-opacity:1;stroke:#333;stroke-opacity:1" d="M0,554.4V509.6H148.57V554.4Z"/></g><g class="point"><path style="vector-effect:non-scaling-stroke;stroke-width:2px;fill:#97add6;fill-opacity:1;stroke:#333;stroke-opacity:1" d="M0,498.4V453.6H191.22V498.4Z"/></g><g class="point"><path style="vector-effect:non-scaling-stroke;stroke-width:2px;fill:#919ed1;fill-opacity:1;stroke:#333;stroke-opacity:1" d="M0,442.4V397.6H195.94V442.4Z"/></g><g class="point"><path style="vector-effect:non-scaling-stroke;stroke-width:2px;fill:#8a8ecc;fill-opacity:1;stroke:#333;stroke-opacity:1" d="M0,386.4V341.6H251.2V386.4Z"/></g><g class="point"><path style="vector-effect:non-scaling-stroke;stroke-width:2px;fill:#8b84c7;fill-opacity:1;stroke:#333;stroke-opacity:1" d="M0,330.4V285.6H310.56V330.4Z"/></g><g class="point"><path style="vector-effect:non-scaling-stroke;stroke-width:2px;fill:#8f7fc2;fill-opacity:1;stroke:#333;stroke-opacity:1" d="M0,274.4V229.6H351.88V274.4Z"/></g><g class="point"><path style="vector-effect:non-scaling-stroke;stroke-width:2px;fill:#9379bd;fill-opacity:1;stroke:#333;stroke-opacity:1" d="M0,218.4V173.6H387.73V218.4Z"/></g><g class="point"><path style="vector-effect:non-scaling-stroke;stroke-width:2px;fill:#9873b7;fill-opacity:1;stroke:#333;stroke-opacity:1" d="M0,162.4V117.6H391.44V162.4Z"/></g><g class="point"><path style="vector-effect:non-scaling-stroke;stroke-width:2px;fill:#9c6eb1;fill-opacity:1;stroke:#333;stroke-opacity:1" d="M0,106.4V61.6H420.95V106.4Z"/></g><g class="point"><path style="vector-effect:non-scaling-stroke;stroke-width:2px;fill:#a069ab;fill-opacity:1;stroke:#333;stroke-opacity:1" d="M0,50.4V5.6H513V50.4Z"/></g></g></g></g></g><path style="fill:none;stroke-width:1px;stroke:#000;stroke-opacity:0" d="M-6,565.5H540" class="xlines-above crisp" transform="translate(200,0)"/><path style="fill:none;stroke-width:1px;stroke:#000;stroke-opacity:0" d="M-5.5,0V565" class="ylines-above crisp" transform="translate(200,0)"/><g class="xaxislayer-above"><g class="xtick"><text x="0" y="578" text-anchor="middle" transform="translate(200,0) translate(0,0)" style="font-family:TOBESTRIPPEDOpen\ SansTOBESTRIPPED,verdana,arial,sans-serif;font-size:12px;fill:#444;fill-opacity:1;white-space:pre">0</text></g><g class="xtick"><text x="0" y="578" text-anchor="middle" transform="translate(200,0) translate(118.21,0)" style="font-family:TOBESTRIPPEDOpen\ SansTOBESTRIPPED,verdana,arial,sans-serif;font-size:12px;fill:#444;fill-opacity:1;white-space:pre">20</text></g><g class="xtick"><text x="0" y="578" text-anchor="middle" transform="translate(200,0) translate(236.41,0)" style="font-family:TOBESTRIPPEDOpen\ SansTOBESTRIPPED,verdana,arial,sans-serif;font-size:12px;fill:#444;fill-opacity:1;white-space:pre">40</text></g><g class="xtick"><text x="0" y="578" text-anchor="middle" transform="translate(200,0) translate(354.62,0)" style="font-family:TOBESTRIPPEDOpen\ SansTOBESTRIPPED,verdana,arial,sans-serif;font-size:12px;fill:#444;fill-opacity:1;white-space:pre">60</text></g><g class="xtick"><text x="0" y="578" text-anchor="middle" transform="translate(200,0) translate(472.82,0)" style="font-family:TOBESTRIPPEDOpen\ SansTOBESTRIPPED,verdana,arial,sans-serif;font-size:12px;fill:#444;fill-opacity:1;white-space:pre">80</text></g></g><g class="yaxislayer-above"><g class="ytick"><text x="-6" y="4.2" text-anchor="end" transform="translate(200,0) translate(0,532)" style="font-family:TOBESTRIPPEDOpen\ SansTOBESTRIPPED,verdana,arial,sans-serif;font-size:12px;fill:#444;fill-opacity:1;white-space:pre">Twitter</text></g><g class="ytick"><text x="-6" y="4.2" text-anchor="end" transform="translate(200,0) translate(0,476)" style="font-family:TOBESTRIPPEDOpen\ SansTOBESTRIPPED,verdana,arial,sans-serif;font-size:12px;fill:#444;fill-opacity:1;white-space:pre">YouTube</text></g><g class="ytick"><text x="-6" y="4.2" text-anchor="end" transform="translate(200,0) translate(0,420)" style="font-family:TOBESTRIPPEDOpen\ SansTOBESTRIPPED,verdana,arial,sans-serif;font-size:12px;fill:#444;fill-opacity:1;white-space:pre">Google Tag Manager</text></g><g class="ytick"><text x="-6" y="4.2" text-anchor="end" transform="translate(200,0) translate(0,364)" style="font-family:TOBESTRIPPEDOpen\ SansTOBESTRIPPED,verdana,arial,sans-serif;font-size:12px;fill:#444;fill-opacity:1;white-space:pre">Google APIs</text></g><g class="ytick"><text x="-6" y="4.2" text-anchor="end" transform="translate(200,0) translate(0,308)" style="font-family:TOBESTRIPPEDOpen\ SansTOBESTRIPPED,verdana,arial,sans-serif;font-size:12px;fill:#444;fill-opacity:1;white-space:pre">DoubleClick</text></g><g class="ytick"><text x="-6" y="4.2" text-anchor="end" transform="translate(200,0) translate(0,252)" style="font-family:TOBESTRIPPEDOpen\ SansTOBESTRIPPED,verdana,arial,sans-serif;font-size:12px;fill:#444;fill-opacity:1;white-space:pre">Facebook</text></g><g class="ytick"><text x="-6" y="4.2" text-anchor="end" transform="translate(200,0) translate(0,196)" style="font-family:TOBESTRIPPEDOpen\ SansTOBESTRIPPED,verdana,arial,sans-serif;font-size:12px;fill:#444;fill-opacity:1;white-space:pre">Google Fonts</text></g><g class="ytick"><text x="-6" y="4.2" text-anchor="end" transform="translate(200,0) translate(0,140)" style="font-family:TOBESTRIPPEDOpen\ SansTOBESTRIPPED,verdana,arial,sans-serif;font-size:12px;fill:#444;fill-opacity:1;white-space:pre">Google</text></g><g class="ytick"><text x="-6" y="4.2" text-anchor="end" transform="translate(200,0) translate(0,84)" style="font-family:TOBESTRIPPEDOpen\ SansTOBESTRIPPED,verdana,arial,sans-serif;font-size:12px;fill:#444;fill-opacity:1;white-space:pre">Google Static</text></g><g class="ytick"><text x="-6" y="4.2" text-anchor="end" transform="translate(200,0) translate(0,28)" style="font-family:TOBESTRIPPEDOpen\ SansTOBESTRIPPED,verdana,arial,sans-serif;font-size:12px;fill:#444;fill-opacity:1;white-space:pre">Google Analytics</text></g></g></g></g></svg>