<svg xmlns="http://www.w3.org/2000/svg" xmlns:xlink="http://www.w3.org/1999/xlink" width="800" height="600" class="main-svg" viewBox="0 0 800 600"><rect width="800" height="600" x="0" y="0" style="fill:#f5f6f9;fill-opacity:1"/><defs id="defs-26e9b9"><g class="clips"><clipPath id="clip26e9b9xyplot" class="plotclip"><rect width="578" height="420"/></clipPath><clipPath id="clip26e9b9x" class="axesclip"><rect width="578" height="600" x="80" y="0"/></clipPath><clipPath id="clip26e9b9y" class="axesclip"><rect width="800" height="420" x="0" y="100"/></clipPath><clipPath id="clip26e9b9xy" class="axesclip"><rect width="578" height="420" x="80" y="100"/></clipPath></g></defs><g class="bglayer"><rect width="578" height="420" x="80" y="100" class="bg" style="fill:#f5f6f9;fill-opacity:1;stroke-width:0"/></g><g class="cartesianlayer"><g class="subplot xy"><g class="gridlayer"><g class="x"><path d="M0,100v420" class="xgrid crisp" transform="translate(128.07999999999998,0)" style="stroke:#e1e5ed;stroke-opacity:1;stroke-width:1px"/><path d="M0,100v420" class="xgrid crisp" transform="translate(208.22,0)" style="stroke:#e1e5ed;stroke-opacity:1;stroke-width:1px"/><path d="M0,100v420" class="xgrid crisp" transform="translate(288.36,0)" style="stroke:#e1e5ed;stroke-opacity:1;stroke-width:1px"/><path d="M0,100v420" class="xgrid crisp" transform="translate(368.5,0)" style="stroke:#e1e5ed;stroke-opacity:1;stroke-width:1px"/><path d="M0,100v420" class="xgrid crisp" transform="translate(448.64,0)" style="stroke:#e1e5ed;stroke-opacity:1;stroke-width:1px"/><path d="M0,100v420" class="xgrid crisp" transform="translate(528.78,0)" style="stroke:#e1e5ed;stroke-opacity:1;stroke-width:1px"/><path d="M0,100v420" class="xgrid crisp" transform="translate(608.92,0)" style="stroke:#e1e5ed;stroke-opacity:1;stroke-width:1px"/></g><g class="y"><path d="M80,0h578" class="ygrid crisp" transform="translate(0,476.18)" style="stroke:#e1e5ed;stroke-opacity:1;stroke-width:1px"/><path d="M80,0h578" class="ygrid crisp" transform="translate(0,432.36)" style="stroke:#e1e5ed;stroke-opacity:1;stroke-width:1px"/><path d="M80,0h578" class="ygrid crisp" transform="translate(0,388.54)" style="stroke:#e1e5ed;stroke-opacity:1;stroke-width:1px"/><path d="M80,0h578" class="ygrid crisp" transform="translate(0,344.72)" style="stroke:#e1e5ed;stroke-opacity:1;stroke-width:1px"/><path d="M80,0h578" class="ygrid crisp" transform="translate(0,300.9)" style="stroke:#e1e5ed;stroke-opacity:1;stroke-width:1px"/><path d="M80,0h578" class="ygrid crisp" transform="translate(0,257.08000000000004)" style="stroke:#e1e5ed;stroke-opacity:1;stroke-width:1px"/><path d="M80,0h578" class="ygrid crisp" transform="translate(0,213.26)" style="stroke:#e1e5ed;stroke-opacity:1;stroke-width:1px"/><path d="M80,0h578" class="ygrid crisp" transform="translate(0,169.44)" style="stroke:#e1e5ed;stroke-opacity:1;stroke-width:1px"/><path d="M80,0h578" class="ygrid crisp" transform="translate(0,125.62)" style="stroke:#e1e5ed;stroke-opacity:1;stroke-width:1px"/></g></g><g class="zerolinelayer"><path d="M80,0h578" class="yzl zl crisp" transform="translate(0,520)" style="stroke:#e1e5ed;stroke-opacity:1;stroke-width:1px"/></g><path class="xlines-below"/><path class="ylines-below"/><g class="plot" clip-path="url(#clip26e9b9xyplot)" transform="translate(80, 100)"><g class="barlayer mlayer"><g class="trace bars" style="opacity:.6"><g class="points"><g class="point"><path style="vector-effect:non-scaling-stroke;opacity:1;stroke-width:0;fill:#f93;fill-opacity:1" d="M3.21,420V397.18H28.85V420Z" class="undefined"/></g><g class="point"><path style="vector-effect:non-scaling-stroke;opacity:1;stroke-width:0;fill:#f93;fill-opacity:1" d="M35.26,420V255.67H60.91V420Z" class="undefined"/></g><g class="point"><path style="vector-effect:non-scaling-stroke;opacity:1;stroke-width:0;fill:#f93;fill-opacity:1" d="M67.32,420V205.46H92.96V420Z" class="undefined"/></g><g class="point"><path style="vector-effect:non-scaling-stroke;opacity:1;stroke-width:0;fill:#f93;fill-opacity:1" d="M99.37,420V118.74H125.02V420Z" class="undefined"/></g><g class="point"><path style="vector-effect:non-scaling-stroke;opacity:1;stroke-width:0;fill:#f93;fill-opacity:1" d="M131.43,420V59.4H157.07V420Z" class="undefined"/></g><g class="point"><path style="vector-effect:non-scaling-stroke;opacity:1;stroke-width:0;fill:#f93;fill-opacity:1" d="M163.48,420V54.83H189.13V420Z" class="undefined"/></g><g class="point"><path style="vector-effect:non-scaling-stroke;opacity:1;stroke-width:0;fill:#f93;fill-opacity:1" d="M195.54,420V159.82H221.18V420Z" class="undefined"/></g><g class="point"><path style="vector-effect:non-scaling-stroke;opacity:1;stroke-width:0;fill:#f93;fill-opacity:1" d="M227.59,420V237.42H253.24V420Z" class="undefined"/></g><g class="point"><path style="vector-effect:non-scaling-stroke;opacity:1;stroke-width:0;fill:#f93;fill-opacity:1" d="M259.65,420V287.63H285.29V420Z" class="undefined"/></g><g class="point"><path style="vector-effect:non-scaling-stroke;opacity:1;stroke-width:0;fill:#f93;fill-opacity:1" d="M291.71,420V346.97H317.35V420Z" class="undefined"/></g><g class="point"><path style="vector-effect:non-scaling-stroke;opacity:1;stroke-width:0;fill:#f93;fill-opacity:1" d="M323.76,420V369.79H349.41V420Z" class="undefined"/></g><g class="point"><path style="vector-effect:non-scaling-stroke;opacity:1;stroke-width:0;fill:#f93;fill-opacity:1" d="M355.82,420V392.61H381.46V420Z" class="undefined"/></g><g class="point"><path style="vector-effect:non-scaling-stroke;opacity:1;stroke-width:0;fill:#f93;fill-opacity:1" d="M387.87,420V406.31H413.52V420Z" class="undefined"/></g><g class="point"><path style="vector-effect:non-scaling-stroke;opacity:1;stroke-width:0;fill:#f93;fill-opacity:1" d="M419.93,420V406.31H445.57V420Z" class="undefined"/></g><g class="point"><path style="vector-effect:non-scaling-stroke;opacity:1;stroke-width:0;fill:#f93;fill-opacity:1" d="M451.98,420V415.44H477.63V420Z" class="undefined"/></g><g class="point"><path style="vector-effect:non-scaling-stroke;opacity:1;stroke-width:0;fill:#f93;fill-opacity:1" d="M516.09,420V415.44H541.74V420Z" class="undefined"/></g></g></g><g class="trace bars" style="opacity:.6"><g class="points"><g class="point"><path style="vector-effect:non-scaling-stroke;opacity:1;stroke-width:0;fill:#3780bf;fill-opacity:1" d="M3.21,420V406H28.85V420Z" class="undefined"/></g><g class="point"><path style="vector-effect:non-scaling-stroke;opacity:1;stroke-width:0;fill:#3780bf;fill-opacity:1" d="M35.26,420V322H60.91V420Z" class="undefined"/></g><g class="point"><path style="vector-effect:non-scaling-stroke;opacity:1;stroke-width:0;fill:#3780bf;fill-opacity:1" d="M67.32,420V196H92.96V420Z" class="undefined"/></g><g class="point"><path style="vector-effect:non-scaling-stroke;opacity:1;stroke-width:0;fill:#3780bf;fill-opacity:1" d="M99.37,420V168H125.02V420Z" class="undefined"/></g><g class="point"><path style="vector-effect:non-scaling-stroke;opacity:1;stroke-width:0;fill:#3780bf;fill-opacity:1" d="M131.43,420V21H157.07V420Z" class="undefined"/></g><g class="point"><path style="vector-effect:non-scaling-stroke;opacity:1;stroke-width:0;fill:#3780bf;fill-opacity:1" d="M163.48,420V21H189.13V420Z" class="undefined"/></g><g class="point"><path style="vector-effect:non-scaling-stroke;opacity:1;stroke-width:0;fill:#3780bf;fill-opacity:1" d="M195.54,420V168H221.18V420Z" class="undefined"/></g><g class="point"><path style="vector-effect:non-scaling-stroke;opacity:1;stroke-width:0;fill:#3780bf;fill-opacity:1" d="M227.59,420V238H253.24V420Z" class="undefined"/></g><g class="point"><path style="vector-effect:non-scaling-stroke;opacity:1;stroke-width:0;fill:#3780bf;fill-opacity:1" d="M259.65,420V301H285.29V420Z" class="undefined"/></g><g class="point"><path style="vector-effect:non-scaling-stroke;opacity:1;stroke-width:0;fill:#3780bf;fill-opacity:1" d="M291.71,420V343H317.35V420Z" class="undefined"/></g><g class="point"><path style="vector-effect:non-scaling-stroke;opacity:1;stroke-width:0;fill:#3780bf;fill-opacity:1" d="M323.76,420V350H349.41V420Z" class="undefined"/></g><g class="point"><path style="vector-effect:non-scaling-stroke;opacity:1;stroke-width:0;fill:#3780bf;fill-opacity:1" d="M355.82,420V378H381.46V420Z" class="undefined"/></g><g class="point"><path style="vector-effect:non-scaling-stroke;opacity:1;stroke-width:0;fill:#3780bf;fill-opacity:1" d="M387.87,420V378H413.52V420Z" class="undefined"/></g><g class="point"><path style="vector-effect:non-scaling-stroke;opacity:1;stroke-width:0;fill:#3780bf;fill-opacity:1" d="M451.98,420V406H477.63V420Z" class="undefined"/></g><g class="point"><path style="vector-effect:non-scaling-stroke;opacity:1;stroke-width:0;fill:#3780bf;fill-opacity:1" d="M484.04,420V413H509.68V420Z" class="undefined"/></g></g></g></g></g><path style="fill:none" d="M0,0" class="xlines-above crisp"/><path style="fill:none" d="M0,0" class="ylines-above crisp"/><g class="xaxislayer-above"><g class="xtick"><text x="0" y="533" text-anchor="middle" transform="translate(128.07999999999998,0)" style="font-family:TOBESTRIPPEDOpen\ SansTOBESTRIPPED,verdana,arial,sans-serif;font-size:12px;fill:#4d5663;fill-opacity:1;white-space:pre">5</text></g><g class="xtick"><text x="0" y="533" text-anchor="middle" transform="translate(208.22,0)" style="font-family:TOBESTRIPPEDOpen\ SansTOBESTRIPPED,verdana,arial,sans-serif;font-size:12px;fill:#4d5663;fill-opacity:1;white-space:pre">10</text></g><g class="xtick"><text x="0" y="533" text-anchor="middle" transform="translate(288.36,0)" style="font-family:TOBESTRIPPEDOpen\ SansTOBESTRIPPED,verdana,arial,sans-serif;font-size:12px;fill:#4d5663;fill-opacity:1;white-space:pre">15</text></g><g class="xtick"><text x="0" y="533" text-anchor="middle" transform="translate(368.5,0)" style="font-family:TOBESTRIPPEDOpen\ SansTOBESTRIPPED,verdana,arial,sans-serif;font-size:12px;fill:#4d5663;fill-opacity:1;white-space:pre">20</text></g><g class="xtick"><text x="0" y="533" text-anchor="middle" transform="translate(448.64,0)" style="font-family:TOBESTRIPPEDOpen\ SansTOBESTRIPPED,verdana,arial,sans-serif;font-size:12px;fill:#4d5663;fill-opacity:1;white-space:pre">25</text></g><g class="xtick"><text x="0" y="533" text-anchor="middle" transform="translate(528.78,0)" style="font-family:TOBESTRIPPEDOpen\ SansTOBESTRIPPED,verdana,arial,sans-serif;font-size:12px;fill:#4d5663;fill-opacity:1;white-space:pre">30</text></g><g class="xtick"><text x="0" y="533" text-anchor="middle" transform="translate(608.92,0)" style="font-family:TOBESTRIPPEDOpen\ SansTOBESTRIPPED,verdana,arial,sans-serif;font-size:12px;fill:#4d5663;fill-opacity:1;white-space:pre">35</text></g></g><g class="yaxislayer-above"><g class="ytick"><text x="79" y="4.2" text-anchor="end" transform="translate(0,520)" style="font-family:TOBESTRIPPEDOpen\ SansTOBESTRIPPED,verdana,arial,sans-serif;font-size:12px;fill:#4d5663;fill-opacity:1;white-space:pre">0</text></g><g class="ytick"><text x="79" y="4.2" text-anchor="end" transform="translate(0,476.18)" style="font-family:TOBESTRIPPEDOpen\ SansTOBESTRIPPED,verdana,arial,sans-serif;font-size:12px;fill:#4d5663;fill-opacity:1;white-space:pre">2</text></g><g class="ytick"><text x="79" y="4.2" text-anchor="end" transform="translate(0,432.36)" style="font-family:TOBESTRIPPEDOpen\ SansTOBESTRIPPED,verdana,arial,sans-serif;font-size:12px;fill:#4d5663;fill-opacity:1;white-space:pre">4</text></g><g class="ytick"><text x="79" y="4.2" text-anchor="end" transform="translate(0,388.54)" style="font-family:TOBESTRIPPEDOpen\ SansTOBESTRIPPED,verdana,arial,sans-serif;font-size:12px;fill:#4d5663;fill-opacity:1;white-space:pre">6</text></g><g class="ytick"><text x="79" y="4.2" text-anchor="end" transform="translate(0,344.72)" style="font-family:TOBESTRIPPEDOpen\ SansTOBESTRIPPED,verdana,arial,sans-serif;font-size:12px;fill:#4d5663;fill-opacity:1;white-space:pre">8</text></g><g class="ytick"><text x="79" y="4.2" text-anchor="end" transform="translate(0,300.9)" style="font-family:TOBESTRIPPEDOpen\ SansTOBESTRIPPED,verdana,arial,sans-serif;font-size:12px;fill:#4d5663;fill-opacity:1;white-space:pre">10</text></g><g class="ytick"><text x="79" y="4.2" text-anchor="end" transform="translate(0,257.08000000000004)" style="font-family:TOBESTRIPPEDOpen\ SansTOBESTRIPPED,verdana,arial,sans-serif;font-size:12px;fill:#4d5663;fill-opacity:1;white-space:pre">12</text></g><g class="ytick"><text x="79" y="4.2" text-anchor="end" transform="translate(0,213.26)" style="font-family:TOBESTRIPPEDOpen\ SansTOBESTRIPPED,verdana,arial,sans-serif;font-size:12px;fill:#4d5663;fill-opacity:1;white-space:pre">14</text></g><g class="ytick"><text x="79" y="4.2" text-anchor="end" transform="translate(0,169.44)" style="font-family:TOBESTRIPPEDOpen\ SansTOBESTRIPPED,verdana,arial,sans-serif;font-size:12px;fill:#4d5663;fill-opacity:1;white-space:pre">16</text></g><g class="ytick"><text x="79" y="4.2" text-anchor="end" transform="translate(0,125.62)" style="font-family:TOBESTRIPPEDOpen\ SansTOBESTRIPPED,verdana,arial,sans-serif;font-size:12px;fill:#4d5663;fill-opacity:1;white-space:pre">18</text></g></g></g></g><defs id="topdefs-26e9b9"><clipPath id="legend26e9b9"><rect width="118" height="48" x="0" y="0"/></clipPath></defs><g class="layer-above"><g class="shapelayer"><path fill-rule="evenodd" d="M240.28,520H657V100H240.28Z" clip-path="url(#clip26e9b9x)" data-index="0" style="opacity:1;stroke:#db4052;stroke-opacity:1;fill:#db4052;fill-opacity:.1;stroke-width:2px"/></g></g><g class="infolayer"><g class="legend" pointer-events="all" transform="translate(669.5600000000001, 100)"><rect style="stroke:#444;stroke-opacity:1;fill:#f5f6f9;fill-opacity:1;stroke-width:0" width="118" height="48" x="0" y="0" class="bg" shape-rendering="crispEdges"/><g class="scrollbox" clip-path="url(#legend26e9b9)" transform="translate(0, 0)"><g class="groups"><g class="traces" transform="translate(0, 14.5)" style="opacity:1"><g class="layers" style="opacity:.6"><g class="legendsymbols"><g class="legendpoints"><path d="M6,6H-6V-6H6Z" class="legendbar" transform="translate(20,0)" style="stroke-width:0;fill:#f93;fill-opacity:1"/></g></g></g><text style="font-family:TOBESTRIPPEDOpen\ SansTOBESTRIPPED,verdana,arial,sans-serif;font-size:12px;fill:#4d5663;fill-opacity:1;white-space:pre" x="40" y="4.68" class="legendtext user-select-none" text-anchor="start">apr_trackers</text><rect style="cursor:pointer;fill:#000;fill-opacity:0" width="158" height="19" x="0" y="-9.5" class="legendtoggle" pointer-events="all"/></g><g class="traces" transform="translate(0, 33.5)" style="opacity:1"><g class="layers" style="opacity:.6"><g class="legendsymbols"><g class="legendpoints"><path d="M6,6H-6V-6H6Z" class="legendbar" transform="translate(20,0)" style="stroke-width:0;fill:#3780bf;fill-opacity:1"/></g></g></g><text style="font-family:TOBESTRIPPEDOpen\ SansTOBESTRIPPED,verdana,arial,sans-serif;font-size:12px;fill:#4d5663;fill-opacity:1;white-space:pre" x="40" y="4.68" class="legendtext user-select-none" text-anchor="start">mar_trackers</text><rect style="cursor:pointer;fill:#000;fill-opacity:0" width="158" height="19" x="0" y="-9.5" class="legendtoggle" pointer-events="all"/></g></g></g><rect width="0" height="0" x="0" y="0" class="scrollbar" rx="20" ry="3" style="fill:#808ba4;fill-opacity:1"/></g><g class="g-gtitle"><text style="font-family:TOBESTRIPPEDOpen\ SansTOBESTRIPPED,verdana,arial,sans-serif;font-size:17px;fill:#4d5663;opacity:1;font-weight:400;white-space:pre" x="400" y="50" class="gtitle" text-anchor="middle">Distribution of the average number of trackers per site</text></g><g class="g-ytitle"><text style="font-family:TOBESTRIPPEDOpen\ SansTOBESTRIPPED,verdana,arial,sans-serif;font-size:14px;fill:#4d5663;opacity:1;font-weight:400;white-space:pre" x="42" y="310" class="ytitle" text-anchor="middle" transform="rotate(-90,42,310)">Percentage of Sites</text></g></g></svg>