<svg xmlns="http://www.w3.org/2000/svg" xmlns:xlink="http://www.w3.org/1999/xlink" width="800" height="600" class="main-svg" viewBox="0 0 800 600"><rect width="800" height="600" x="0" y="0" style="fill:#f5f6f9;fill-opacity:1"/><defs id="defs-41731f"><g class="clips"><clipPath id="clip41731fxyplot" class="plotclip"><rect width="584" height="178.5"/></clipPath><clipPath id="clip41731fxy2plot" class="plotclip"><rect width="584" height="178.5"/></clipPath><clipPath id="clip41731fx" class="axesclip"><rect width="584" height="600" x="80" y="0"/></clipPath><clipPath id="clip41731fy" class="axesclip"><rect width="800" height="178.5" x="0" y="100"/></clipPath><clipPath id="clip41731fxy" class="axesclip"><rect width="584" height="178.5" x="80" y="100"/></clipPath><clipPath id="clip41731fy2" class="axesclip"><rect width="800" height="178.5" x="0" y="341.5"/></clipPath><clipPath id="clip41731fxy2" class="axesclip"><rect width="584" height="178.5" x="80" y="341.5"/></clipPath></g></defs><g class="bglayer"><rect width="584" height="178.5" x="80" y="100" class="bg" style="fill:#f5f6f9;fill-opacity:1;stroke-width:0"/><rect width="584" height="178.5" x="80" y="341.5" class="bg" style="fill:#f5f6f9;fill-opacity:1;stroke-width:0"/></g><g class="cartesianlayer"><g class="subplot xy"><g class="gridlayer"><g class="x"><path d="M0,100v178.50000000000003" class="xgrid crisp" transform="translate(186.34,0)" style="stroke:#e1e5ed;stroke-opacity:1;stroke-width:1px"/><path d="M0,100v178.50000000000003" class="xgrid crisp" transform="translate(294.41999999999996,0)" style="stroke:#e1e5ed;stroke-opacity:1;stroke-width:1px"/><path d="M0,100v178.50000000000003" class="xgrid crisp" transform="translate(400.76,0)" style="stroke:#e1e5ed;stroke-opacity:1;stroke-width:1px"/><path d="M0,100v178.50000000000003" class="xgrid crisp" transform="translate(507.1,0)" style="stroke:#e1e5ed;stroke-opacity:1;stroke-width:1px"/><path d="M0,100v178.50000000000003" class="xgrid crisp" transform="translate(609.96,0)" style="stroke:#e1e5ed;stroke-opacity:1;stroke-width:1px"/></g><g class="y"><path d="M80,0h584" class="ygrid crisp" transform="translate(0,224.73000000000002)" style="stroke:#e1e5ed;stroke-opacity:1;stroke-width:1px"/><path d="M80,0h584" class="ygrid crisp" transform="translate(0,170.95999999999998)" style="stroke:#e1e5ed;stroke-opacity:1;stroke-width:1px"/><path d="M80,0h584" class="ygrid crisp" transform="translate(0,117.19)" style="stroke:#e1e5ed;stroke-opacity:1;stroke-width:1px"/></g></g><g class="zerolinelayer"><path d="M80,0h584" class="yzl zl crisp" transform="translate(0,278.5)" style="stroke:#e1e5ed;stroke-opacity:1;stroke-width:1px"/></g><path class="xlines-below"/><path class="ylines-below"/><g class="plot" clip-path="url(#clip41731fxyplot)" transform="translate(80, 100)"><g class="scatterlayer"><g class="trace scatter trace0a8914" style="stroke-miterlimit:2"><path d="M584,178.5L0,178.5L0,9.96L54.04,8.93L106.34,14.04L160.38,16.68L214.42,18.27L266.72,24.61L320.76,23.93L373.06,26.67L427.1,25.71L481.15,23.66L529.96,24.91L584,24.16" class="js-fill js-tozero" style="fill:#f93;fill-opacity:.3;stroke-width:0"/><path style="vector-effect:non-scaling-stroke;fill:none;stroke:#f93;stroke-opacity:1;stroke-width:1.3px;opacity:1" d="M0,9.96L54.04,8.93L106.34,14.04L160.38,16.68L214.42,18.27L266.72,24.61L320.76,23.93L373.06,26.67L427.1,25.71L481.15,23.66L529.96,24.91L584,24.16" class="js-line"/></g></g></g><path style="fill:none" d="M0,0" class="xlines-above crisp"/><path style="fill:none" d="M0,0" class="ylines-above crisp"/><g class="yaxislayer-above"><g class="ytick"><text x="80" y="4.2" text-anchor="end" transform="translate(0,278.5)" style="font-family:TOBESTRIPPEDOpen SansTOBESTRIPPED,verdana,arial,sans-serif;font-size:12px;fill:#4d5663;fill-opacity:1;white-space:pre">0</text></g><g class="ytick"><text x="80" y="4.2" text-anchor="end" transform="translate(0,224.73000000000002)" style="font-family:TOBESTRIPPEDOpen SansTOBESTRIPPED,verdana,arial,sans-serif;font-size:12px;fill:#4d5663;fill-opacity:1;white-space:pre">0.1</text></g><g class="ytick"><text x="80" y="4.2" text-anchor="end" transform="translate(0,170.95999999999998)" style="font-family:TOBESTRIPPEDOpen SansTOBESTRIPPED,verdana,arial,sans-serif;font-size:12px;fill:#4d5663;fill-opacity:1;white-space:pre">0.2</text></g><g class="ytick"><text x="80" y="4.2" text-anchor="end" transform="translate(0,117.19)" style="font-family:TOBESTRIPPEDOpen SansTOBESTRIPPED,verdana,arial,sans-serif;font-size:12px;fill:#4d5663;fill-opacity:1;white-space:pre">0.3</text></g></g></g><g class="subplot xy2"><g class="gridlayer"><g class="x"><path d="M0,341.5v178.5" class="xgrid crisp" transform="translate(186.34,0)" style="stroke:#e1e5ed;stroke-opacity:1;stroke-width:1px"/><path d="M0,341.5v178.5" class="xgrid crisp" transform="translate(294.41999999999996,0)" style="stroke:#e1e5ed;stroke-opacity:1;stroke-width:1px"/><path d="M0,341.5v178.5" class="xgrid crisp" transform="translate(400.76,0)" style="stroke:#e1e5ed;stroke-opacity:1;stroke-width:1px"/><path d="M0,341.5v178.5" class="xgrid crisp" transform="translate(507.1,0)" style="stroke:#e1e5ed;stroke-opacity:1;stroke-width:1px"/><path d="M0,341.5v178.5" class="xgrid crisp" transform="translate(609.96,0)" style="stroke:#e1e5ed;stroke-opacity:1;stroke-width:1px"/></g><g class="y2"><path d="M80,0h584" class="y2grid crisp" transform="translate(0,479.12)" style="stroke:#e5e6e9;stroke-opacity:1;stroke-width:1px"/><path d="M80,0h584" class="y2grid crisp" transform="translate(0,438.24)" style="stroke:#e5e6e9;stroke-opacity:1;stroke-width:1px"/><path d="M80,0h584" class="y2grid crisp" transform="translate(0,397.36)" style="stroke:#e5e6e9;stroke-opacity:1;stroke-width:1px"/><path d="M80,0h584" class="y2grid crisp" transform="translate(0,356.48)" style="stroke:#e5e6e9;stroke-opacity:1;stroke-width:1px"/></g></g><g class="zerolinelayer"><path d="M80,0h584" class="y2zl zl crisp" transform="translate(0,520)" style="stroke:#444;stroke-opacity:1;stroke-width:1px"/></g><path class="xlines-below"/><path class="ylines-below"/><g class="plot" clip-path="url(#clip41731fxy2plot)" transform="translate(80, 341.5)"><g class="scatterlayer"><g class="trace scatter traced2ca36" style="stroke-miterlimit:2"><path d="M584,178.5L0,178.5L0,25.53L54.04,23.8L106.34,24L266.72,26.45L320.76,24.67L373.06,21.17L427.1,19.23L481.15,12.56L529.96,8.93L584,12.49" class="js-fill js-tozero" style="fill:#3780bf;fill-opacity:.3;stroke-width:0"/><path style="vector-effect:non-scaling-stroke;fill:none;stroke:#3780bf;stroke-opacity:1;stroke-width:1.3px;opacity:1" d="M0,25.53L54.04,23.8L106.34,24L266.72,26.45L320.76,24.67L373.06,21.17L427.1,19.23L481.15,12.56L529.96,8.93L584,12.49" class="js-line"/></g></g></g><path style="fill:none" d="M0,0" class="xlines-above crisp"/><path style="fill:none" d="M0,0" class="ylines-above crisp"/><g class="xaxislayer-above"><g class="xtick"><text x="0" y="533" text-anchor="middle" transform="translate(80,0)" style="font-family:TOBESTRIPPEDOpen SansTOBESTRIPPED,verdana,arial,sans-serif;font-size:12px;fill:#4d5663;fill-opacity:1;white-space:pre">May 2017</text></g><g class="xtick"><text x="0" y="533" text-anchor="middle" transform="translate(186.34,0)" style="font-family:TOBESTRIPPEDOpen SansTOBESTRIPPED,verdana,arial,sans-serif;font-size:12px;fill:#4d5663;fill-opacity:1;white-space:pre">Jul 2017</text></g><g class="xtick"><text x="0" y="533" text-anchor="middle" transform="translate(294.41999999999996,0)" style="font-family:TOBESTRIPPEDOpen SansTOBESTRIPPED,verdana,arial,sans-serif;font-size:12px;fill:#4d5663;fill-opacity:1;white-space:pre">Sep 2017</text></g><g class="xtick"><text x="0" y="533" text-anchor="middle" transform="translate(400.76,0)" style="font-family:TOBESTRIPPEDOpen SansTOBESTRIPPED,verdana,arial,sans-serif;font-size:12px;fill:#4d5663;fill-opacity:1;white-space:pre">Nov 2017</text></g><g class="xtick"><text x="0" y="533" text-anchor="middle" transform="translate(507.1,0)" style="font-family:TOBESTRIPPEDOpen SansTOBESTRIPPED,verdana,arial,sans-serif;font-size:12px;fill:#4d5663;fill-opacity:1;white-space:pre">Jan 2018</text></g><g class="xtick"><text x="0" y="533" text-anchor="middle" transform="translate(609.96,0)" style="font-family:TOBESTRIPPEDOpen SansTOBESTRIPPED,verdana,arial,sans-serif;font-size:12px;fill:#4d5663;fill-opacity:1;white-space:pre">Mar 2018</text></g></g><g class="yaxislayer-above"><g class="y2tick"><text x="79" y="4.2" text-anchor="end" transform="translate(0,520)" style="font-family:TOBESTRIPPEDOpen SansTOBESTRIPPED,verdana,arial,sans-serif;font-size:12px;fill:#444;fill-opacity:1;white-space:pre">0</text></g><g class="y2tick"><text x="79" y="4.2" text-anchor="end" transform="translate(0,479.12)" style="font-family:TOBESTRIPPEDOpen SansTOBESTRIPPED,verdana,arial,sans-serif;font-size:12px;fill:#444;fill-opacity:1;white-space:pre">0.1</text></g><g class="y2tick"><text x="79" y="4.2" text-anchor="end" transform="translate(0,438.24)" style="font-family:TOBESTRIPPEDOpen SansTOBESTRIPPED,verdana,arial,sans-serif;font-size:12px;fill:#444;fill-opacity:1;white-space:pre">0.2</text></g><g class="y2tick"><text x="79" y="4.2" text-anchor="end" transform="translate(0,397.36)" style="font-family:TOBESTRIPPEDOpen SansTOBESTRIPPED,verdana,arial,sans-serif;font-size:12px;fill:#444;fill-opacity:1;white-space:pre">0.3</text></g><g class="y2tick"><text x="79" y="4.2" text-anchor="end" transform="translate(0,356.48)" style="font-family:TOBESTRIPPEDOpen SansTOBESTRIPPED,verdana,arial,sans-serif;font-size:12px;fill:#444;fill-opacity:1;white-space:pre">0.4</text></g></g></g></g><defs id="topdefs-41731f"><clipPath id="legend41731f"><rect width="112" height="48" x="0" y="0"/></clipPath></defs><g class="layer-above"><g class="shapelayer"><path fill-rule="evenodd" d="M609.96,520L609.96,100" clip-path="url(#clip41731fx)" data-index="0" style="opacity:1;stroke:#db4052;stroke-opacity:1;fill:#000;fill-opacity:0;stroke-width:1px"/></g></g><g class="infolayer"><g class="g-gtitle"><text style="font-family:TOBESTRIPPEDOpen SansTOBESTRIPPED,verdana,arial,sans-serif;font-size:17px;fill:#4d5663;opacity:1;font-weight:400;white-space:pre" x="400" y="50" class="gtitle" text-anchor="middle">Reach and Site Reach</text></g><g class="legend" pointer-events="all" transform="translate(675.6800000000001, 100)"><rect style="stroke:#444;stroke-opacity:1;fill:#f5f6f9;fill-opacity:1;stroke-width:0" width="112" height="48" x="0" y="0" class="bg" shape-rendering="crispEdges"/><g class="scrollbox" clip-path="url(#legend41731f)" transform="translate(0, 0)"><g class="groups"><g class="traces" transform="translate(0, 14.5)" style="opacity:1"><g class="layers"><g class="legendfill"><path d="M5,0h30v6h-30z" class="js-fill" style="stroke-width:0;fill:#f93;fill-opacity:.3"/></g><g class="legendlines"><path d="M5,0h30" class="js-line" style="fill:none;stroke:#f93;stroke-opacity:1;stroke-width:1.3px"/></g></g><text style="font-family:TOBESTRIPPEDOpen SansTOBESTRIPPED,verdana,arial,sans-serif;font-size:12px;fill:#4d5663;fill-opacity:1;white-space:pre" x="40" y="4.68" class="legendtext user-select-none" text-anchor="start">reach</text><rect style="cursor:pointer;fill:#000;fill-opacity:0" width="152" height="19" x="0" y="-9.5" class="legendtoggle" pointer-events="all"/></g><g class="traces" transform="translate(0, 33.5)" style="opacity:1"><g class="layers"><g class="legendfill"><path d="M5,0h30v6h-30z" class="js-fill" style="stroke-width:0;fill:#3780bf;fill-opacity:.3"/></g><g class="legendlines"><path d="M5,0h30" class="js-line" style="fill:none;stroke:#3780bf;stroke-opacity:1;stroke-width:1.3px"/></g></g><text style="font-family:TOBESTRIPPEDOpen SansTOBESTRIPPED,verdana,arial,sans-serif;font-size:12px;fill:#4d5663;fill-opacity:1;white-space:pre" x="40" y="4.68" class="legendtext user-select-none" text-anchor="start">site_reach</text><rect style="cursor:pointer;fill:#000;fill-opacity:0" width="152" height="19" x="0" y="-9.5" class="legendtoggle" pointer-events="all"/></g></g></g><rect width="0" height="0" x="0" y="0" class="scrollbar" rx="20" ry="3" style="fill:#808ba4;fill-opacity:1"/></g></g></svg>