<svg xmlns="http://www.w3.org/2000/svg" xmlns:svg="http://www.w3.org/2000/svg" id="svg322" width="720" height="373" class="marks" version="1.1" viewBox="0 0 720 373"><metadata id="metadata328"/><g id="g320" transform="translate(63,30)"><g id="g318" class="mark-group role-frame root"><g id="g316" transform="translate(0,0)"><path style="fill:none;stroke:#ddd" id="path2" d="M0.5,0.5h400v300h-400Z" class="background"/><g id="g314"><g id="g20" class="mark-group role-axis"><g id="g18" transform="translate(0.5,300.5)"><path style="pointer-events:none;fill:none" id="path4" d="M0,0h0v0h0Z" class="background"/><g id="g16"><g style="pointer-events:none" id="g14" class="mark-rule role-axis-grid"><line style="fill:none;stroke:#999;stroke-width:.5;opacity:1" id="line6" x2="0" y2="300" transform="translate(24,-300)"/><line style="fill:none;stroke:#999;stroke-width:.5;opacity:1" id="line8" x2="0" y2="300" transform="translate(141,-300)"/><line style="fill:none;stroke:#999;stroke-width:.5;opacity:1" id="line10" x2="0" y2="300" transform="translate(259,-300)"/><line style="fill:none;stroke:#999;stroke-width:.5;opacity:1" id="line12" x2="0" y2="300" transform="translate(376,-300)"/></g></g></g></g><g id="g48" class="mark-group role-axis"><g id="g46" transform="translate(0.5,0.5)"><path style="pointer-events:none;fill:none" id="path22" d="M0,0h0v0h0Z" class="background"/><g id="g44"><g style="pointer-events:none" id="g42" class="mark-rule role-axis-grid"><line style="fill:none;stroke:#999;stroke-width:.5;opacity:1" id="line24" x2="400" y2="0" transform="translate(0,300)"/><line style="fill:none;stroke:#999;stroke-width:.5;opacity:1" id="line26" x2="400" y2="0" transform="translate(0,263)"/><line style="fill:none;stroke:#999;stroke-width:.5;opacity:1" id="line28" x2="400" y2="0" transform="translate(0,225)"/><line style="fill:none;stroke:#999;stroke-width:.5;opacity:1" id="line30" x2="400" y2="0" transform="translate(0,188)"/><line style="fill:none;stroke:#999;stroke-width:.5;opacity:1" id="line32" x2="400" y2="0" transform="translate(0,150)"/><line style="fill:none;stroke:#999;stroke-width:.5;opacity:1" id="line34" x2="400" y2="0" transform="translate(0,113)"/><line style="fill:none;stroke:#999;stroke-width:.5;opacity:1" id="line36" x2="400" y2="0" transform="translate(0,75)"/><line style="fill:none;stroke:#999;stroke-width:.5;opacity:1" id="line38" x2="400" y2="0" transform="translate(0,38)"/><line style="fill:none;stroke:#999;stroke-width:.5;opacity:1" id="line40" x2="400" y2="0" transform="translate(0,0)"/></g></g></g></g><g id="g110" class="mark-group role-scope pathgroup"><g id="g58" transform="translate(0,0)"><path style="fill:none" id="path50" d="M0,0h400v300h-400Z" class="background"/><g id="g56"><g id="g54" class="mark-line role-mark marks"><path style="fill:none;stroke:#4c78a8;stroke-width:3" id="path52" d="M376.47058823529414,30.500384226442463L258.8235294117647,42.63875508571124L141.17647058823528,23.18941359463173L23.529411764705856,37.5"/></g></g></g><g id="g68" transform="translate(0,0)"><path style="fill:none" id="path60" d="M0,0h400v300h-400Z" class="background"/><g id="g66"><g id="g64" class="mark-line role-mark marks"><path style="fill:none;stroke:#f58518;stroke-width:3" id="path62" d="M376.47058823529414,87.43051213726287L258.8235294117647,88.15323657468431L141.17647058823528,50.368792670193756L23.529411764705856,37.5"/></g></g></g><g id="g78" transform="translate(0,0)"><path style="fill:none" id="path70" d="M0,0h400v300h-400Z" class="background"/><g id="g76"><g id="g74" class="mark-line role-mark marks"><path style="fill:none;stroke:#e45756;stroke-width:3" id="path72" d="M376.47058823529414,188.0146598080944L258.8235294117647,165.97751553189883L141.17647058823528,71.05888064533238L23.529411764705856,37.5"/></g></g></g><g id="g88" transform="translate(0,0)"><path style="fill:none" id="path80" d="M0,0h400v300h-400Z" class="background"/><g id="g86"><g id="g84" class="mark-line role-mark marks"><path style="fill:none;stroke:#72b7b2;stroke-width:3" id="path82" d="M376.47058823529414,244.74097050249938L258.8235294117647,171.10857423696044L141.17647058823528,68.38188933162391L23.529411764705856,37.5"/></g></g></g><g id="g98" transform="translate(0,0)"><path style="fill:none" id="path90" d="M0,0h400v300h-400Z" class="background"/><g id="g96"><g id="g94" class="mark-line role-mark marks"><path style="fill:none;stroke:#54a24b;stroke-width:3" id="path92" d="M376.47058823529414,276.5213542130944L258.8235294117647,208.6513187537037L141.17647058823528,69.82767650846904L23.529411764705856,37.5"/></g></g></g><g id="g108" transform="translate(0,0)"><path style="fill:none" id="path100" d="M0,0h400v300h-400Z" class="background"/><g id="g106"><g id="g104" class="mark-line role-mark marks"><path style="fill:none;stroke:#eeca3b;stroke-width:3" id="path102" d="M376.47058823529414,175.1004933503848L258.8235294117647,177.28060494730283L141.17647058823528,66.43031835080012L23.529411764705856,37.5"/></g></g></g></g><g id="g216" class="mark-group role-legend"><g id="g214" transform="translate(418,0)"><path style="pointer-events:none;fill:none" id="path112" d="M0,0h234v111h-234Z" class="background"/><g id="g212"><g id="g206" class="mark-group role-legend-entry"><g id="g204" transform="translate(0,18)"><path style="pointer-events:none;fill:none" id="path114" d="M0,0h0v0h0Z" class="background"/><g id="g202"><g id="g200" class="mark-group role-scope"><g id="g128" transform="translate(0,0)"><path style="pointer-events:none;fill:none;opacity:1" id="path116" d="M0,0h234v13h-234Z" class="background"/><g id="g126"><g style="pointer-events:none" id="g120" class="mark-symbol role-legend-symbol"><path style="fill:none;stroke:#4c78a8;stroke-width:1.5;opacity:1" id="path118" d="M5,0A5,5,0,1,1,-5,0A5,5,0,1,1,5,0" transform="translate(6,6)"/></g><g style="pointer-events:none" id="g124" class="mark-text role-legend-label"><text style="font-family:sans-serif;font-size:12px;fill:#000;opacity:1" id="text122" text-anchor="start" transform="translate(16,10)">Google</text></g></g></g><g id="g142" transform="translate(0,16)"><path style="pointer-events:none;fill:none;opacity:1" id="path130" d="M0,0h234v13h-234Z" class="background"/><g id="g140"><g style="pointer-events:none" id="g134" class="mark-symbol role-legend-symbol"><path style="fill:none;stroke:#f58518;stroke-width:1.5;opacity:1" id="path132" d="M5,0A5,5,0,1,1,-5,0A5,5,0,1,1,5,0" transform="translate(6,6)"/></g><g style="pointer-events:none" id="g138" class="mark-text role-legend-label"><text style="font-family:sans-serif;font-size:12px;fill:#000;opacity:1" id="text136" text-anchor="start" transform="translate(16,10)">Facebook</text></g></g></g><g id="g156" transform="translate(0,32)"><path style="pointer-events:none;fill:none;opacity:1" id="path144" d="M0,0h234v13h-234Z" class="background"/><g id="g154"><g style="pointer-events:none" id="g148" class="mark-symbol role-legend-symbol"><path style="fill:none;stroke:#e45756;stroke-width:1.5;opacity:1" id="path146" d="M5,0A5,5,0,1,1,-5,0A5,5,0,1,1,5,0" transform="translate(6,6)"/></g><g style="pointer-events:none" id="g152" class="mark-text role-legend-label"><text style="font-family:sans-serif;font-size:12px;fill:#000;opacity:1" id="text150" text-anchor="start" transform="translate(16,10)">Top 50 (excl. Google, Facebook)</text></g></g></g><g id="g170" transform="translate(0,48)"><path style="pointer-events:none;fill:none;opacity:1" id="path158" d="M0,0h234v13h-234Z" class="background"/><g id="g168"><g style="pointer-events:none" id="g162" class="mark-symbol role-legend-symbol"><path style="fill:none;stroke:#72b7b2;stroke-width:1.5;opacity:1" id="path160" d="M5,0A5,5,0,1,1,-5,0A5,5,0,1,1,5,0" transform="translate(6,6)"/></g><g style="pointer-events:none" id="g166" class="mark-text role-legend-label"><text style="font-family:sans-serif;font-size:12px;fill:#000;opacity:1" id="text164" text-anchor="start" transform="translate(16,10)">Smaller Advertisers (rank: 50-100)</text></g></g></g><g id="g184" transform="translate(0,64)"><path style="pointer-events:none;fill:none;opacity:1" id="path172" d="M0,0h234v13h-234Z" class="background"/><g id="g182"><g style="pointer-events:none" id="g176" class="mark-symbol role-legend-symbol"><path style="fill:none;stroke:#54a24b;stroke-width:1.5;opacity:1" id="path174" d="M5,0A5,5,0,1,1,-5,0A5,5,0,1,1,5,0" transform="translate(6,6)"/></g><g style="pointer-events:none" id="g180" class="mark-text role-legend-label"><text style="font-family:sans-serif;font-size:12px;fill:#000;opacity:1" id="text178" text-anchor="start" transform="translate(16,10)">Smaller Advertisers (rank: 100-150)</text></g></g></g><g id="g198" transform="translate(0,80)"><path style="pointer-events:none;fill:none;opacity:1" id="path186" d="M0,0h234v13h-234Z" class="background"/><g id="g196"><g style="pointer-events:none" id="g190" class="mark-symbol role-legend-symbol"><path style="fill:none;stroke:#eeca3b;stroke-width:1.5;opacity:1" id="path188" d="M5,0A5,5,0,1,1,-5,0A5,5,0,1,1,5,0" transform="translate(6,6)"/></g><g style="pointer-events:none" id="g194" class="mark-text role-legend-label"><text style="font-family:sans-serif;font-size:12px;fill:#000;opacity:1" id="text192" text-anchor="start" transform="translate(16,10)">Smallest Advertisers (rank: &lt;150)</text></g></g></g></g></g></g></g><g style="pointer-events:none" id="g210" class="mark-text role-legend-title"><text style="font-family:sans-serif;font-size:13px;font-weight:700;fill:#000;opacity:1" id="text208" text-anchor="start" transform="translate(0,10)">Company</text></g></g></g></g><g style="pointer-events:none" id="g220" class="mark-text role-title"><text style="font-weight:700;font-size:13px;font-family:sans-serif;text-anchor:middle;opacity:1;fill:#000" id="text218" x="209" y="-14">AdTech Vendors (site reach) - % change</text></g><g id="g256" class="mark-group role-axis"><g id="g254" transform="translate(0.5,300.5)"><path style="pointer-events:none;fill:none" id="path222" d="M0,0h0v0h0Z" class="background"/><g id="g252"><g style="pointer-events:none" id="g232" class="mark-rule role-axis-tick"><line style="fill:none;stroke:#888;stroke-width:1;opacity:1" id="line224" x2="0" y2="5" transform="translate(24,0)"/><line style="fill:none;stroke:#888;stroke-width:1;opacity:1" id="line226" x2="0" y2="5" transform="translate(141,0)"/><line style="fill:none;stroke:#888;stroke-width:1;opacity:1" id="line228" x2="0" y2="5" transform="translate(259,0)"/><line style="fill:none;stroke:#888;stroke-width:1;opacity:1" id="line230" x2="0" y2="5" transform="translate(376,0)"/></g><g style="pointer-events:none" id="g242" class="mark-text role-axis-label"><text style="font-family:sans-serif;font-size:12px;fill:#000;opacity:1" id="text234" text-anchor="middle" transform="translate(23.529411764705856,16)">2018-04</text><text style="font-family:sans-serif;font-size:12px;fill:#000;opacity:1" id="text236" text-anchor="middle" transform="translate(141.17647058823528,16)">2018-05</text><text style="font-family:sans-serif;font-size:12px;fill:#000;opacity:1" id="text238" text-anchor="middle" transform="translate(258.8235294117647,16)">2018-06</text><text style="font-family:sans-serif;font-size:12px;fill:#000;opacity:1" id="text240" text-anchor="middle" transform="translate(376.47058823529414,16)">2018-07</text></g><g style="pointer-events:none" id="g246" class="mark-rule role-axis-domain"><line style="fill:none;stroke:#888;stroke-width:.5;opacity:1" id="line244" x2="400" y2="0" transform="translate(0,0)"/></g><g style="pointer-events:none" id="g250" class="mark-text role-axis-title"><text style="font-family:sans-serif;font-size:13px;font-weight:700;fill:#000;opacity:1" id="text248" text-anchor="middle" transform="translate(200,33)">month</text></g></g></g></g><g id="g312" class="mark-group role-axis"><g id="g310" transform="translate(0.5,0.5)"><path style="pointer-events:none;fill:none" id="path258" d="M0,0h0v0h0Z" class="background"/><g id="g308"><g style="pointer-events:none" id="g278" class="mark-rule role-axis-tick"><line style="fill:none;stroke:#888;stroke-width:1;opacity:1" id="line260" x2="-5" y2="0" transform="translate(0,300)"/><line style="fill:none;stroke:#888;stroke-width:1;opacity:1" id="line262" x2="-5" y2="0" transform="translate(0,263)"/><line style="fill:none;stroke:#888;stroke-width:1;opacity:1" id="line264" x2="-5" y2="0" transform="translate(0,225)"/><line style="fill:none;stroke:#888;stroke-width:1;opacity:1" id="line266" x2="-5" y2="0" transform="translate(0,188)"/><line style="fill:none;stroke:#888;stroke-width:1;opacity:1" id="line268" x2="-5" y2="0" transform="translate(0,150)"/><line style="fill:none;stroke:#888;stroke-width:1;opacity:1" id="line270" x2="-5" y2="0" transform="translate(0,113)"/><line style="fill:none;stroke:#888;stroke-width:1;opacity:1" id="line272" x2="-5" y2="0" transform="translate(0,75)"/><line style="fill:none;stroke:#888;stroke-width:1;opacity:1" id="line274" x2="-5" y2="0" transform="translate(0,38)"/><line style="fill:none;stroke:#888;stroke-width:1;opacity:1" id="line276" x2="-5" y2="0" transform="translate(0,0)"/></g><g style="pointer-events:none" id="g298" class="mark-text role-axis-label"><text style="font-family:sans-serif;font-size:12px;fill:#000;opacity:1" id="text280" text-anchor="end" transform="translate(-7,304)">-35%</text><text style="font-family:sans-serif;font-size:12px;fill:#000;opacity:1" id="text282" text-anchor="end" transform="translate(-7,266.5)">-30%</text><text style="font-family:sans-serif;font-size:12px;fill:#000;opacity:1" id="text284" text-anchor="end" transform="translate(-7,229)">-25%</text><text style="font-family:sans-serif;font-size:12px;fill:#000;opacity:1" id="text286" text-anchor="end" transform="translate(-7,191.5)">-20%</text><text style="font-family:sans-serif;font-size:12px;fill:#000;opacity:1" id="text288" text-anchor="end" transform="translate(-7,154)">-15%</text><text style="font-family:sans-serif;font-size:12px;fill:#000;opacity:1" id="text290" text-anchor="end" transform="translate(-7,116.5)">-10%</text><text style="font-family:sans-serif;font-size:12px;fill:#000;opacity:1" id="text292" text-anchor="end" transform="translate(-7,79)">-5%</text><text style="font-family:sans-serif;font-size:12px;fill:#000;opacity:1" id="text294" text-anchor="end" transform="translate(-7,41.5)">0%</text><text style="font-family:sans-serif;font-size:12px;fill:#000;opacity:1" id="text296" text-anchor="end" transform="translate(-7,4)">5%</text></g><g style="pointer-events:none" id="g302" class="mark-rule role-axis-domain"><line style="fill:none;stroke:#888;stroke-width:.5;opacity:1" id="line300" x2="0" y2="-300" transform="translate(0,300)"/></g><g style="pointer-events:none" id="g306" class="mark-text role-axis-title"><text style="font-weight:700;font-size:13px;font-family:sans-serif;text-anchor:middle;opacity:1;fill:#000" id="text304" transform="rotate(-90,52,98)">Change in site reach</text></g></g></g></g></g></g></g></g></svg>