<svg xmlns="http://www.w3.org/2000/svg" xmlns:svg="http://www.w3.org/2000/svg" id="svg304" width="720" height="366" class="marks" version="1.1" viewBox="0 0 720 366"><metadata id="metadata310"/><g id="g302" transform="translate(63,23)"><g id="g300" class="mark-group role-frame root"><g id="g298" transform="translate(0,0)"><path style="fill:none;stroke:#ddd" id="path2" d="M0.5,0.5h400v300h-400Z" class="background"/><g id="g296"><g id="g20" class="mark-group role-axis"><g id="g18" transform="translate(0.5,300.5)"><path style="pointer-events:none;fill:none" id="path4" d="M0,0h0v0h0Z" class="background"/><g id="g16"><g style="pointer-events:none" id="g14" class="mark-rule role-axis-grid"><line style="fill:none;stroke:#999;stroke-width:.5;opacity:1" id="line6" x2="0" y2="300" transform="translate(24,-300)"/><line style="fill:none;stroke:#999;stroke-width:.5;opacity:1" id="line8" x2="0" y2="300" transform="translate(141,-300)"/><line style="fill:none;stroke:#999;stroke-width:.5;opacity:1" id="line10" x2="0" y2="300" transform="translate(259,-300)"/><line style="fill:none;stroke:#999;stroke-width:.5;opacity:1" id="line12" x2="0" y2="300" transform="translate(376,-300)"/></g></g></g></g><g id="g42" class="mark-group role-axis"><g id="g40" transform="translate(0.5,0.5)"><path style="pointer-events:none;fill:none" id="path22" d="M0,0h0v0h0Z" class="background"/><g id="g38"><g style="pointer-events:none" id="g36" class="mark-rule role-axis-grid"><line style="fill:none;stroke:#999;stroke-width:.5;opacity:1" id="line24" x2="400" y2="0" transform="translate(0,289)"/><line style="fill:none;stroke:#999;stroke-width:.5;opacity:1" id="line26" x2="400" y2="0" transform="translate(0,236)"/><line style="fill:none;stroke:#999;stroke-width:.5;opacity:1" id="line28" x2="400" y2="0" transform="translate(0,182)"/><line style="fill:none;stroke:#999;stroke-width:.5;opacity:1" id="line30" x2="400" y2="0" transform="translate(0,129)"/><line style="fill:none;stroke:#999;stroke-width:.5;opacity:1" id="line32" x2="400" y2="0" transform="translate(0,75)"/><line style="fill:none;stroke:#999;stroke-width:.5;opacity:1" id="line34" x2="400" y2="0" transform="translate(0,21)"/></g></g></g></g><g id="g104" class="mark-group role-scope pathgroup"><g id="g52" transform="translate(0,0)"><path style="fill:none" id="path44" d="M0,0h400v300h-400Z" class="background"/><g id="g50"><g id="g48" class="mark-line role-mark marks"><path style="fill:none;stroke:#4c78a8;stroke-width:3" id="path46" d="M376.47058823529414,34.39821350616944L258.8235294117647,47.52065821792135L141.17647058823528,6.317562896557661L23.529411764705856,21.428571428571445"/></g></g></g><g id="g62" transform="translate(0,0)"><path style="fill:none" id="path54" d="M0,0h400v300h-400Z" class="background"/><g id="g60"><g id="g58" class="mark-line role-mark marks"><path style="fill:none;stroke:#f58518;stroke-width:3" id="path56" d="M376.47058823529414,81.89462762716829L258.8235294117647,86.40407234773869L141.17647058823528,34.02387662956863L23.529411764705856,21.428571428571445"/></g></g></g><g id="g72" transform="translate(0,0)"><path style="fill:none" id="path64" d="M0,0h400v300h-400Z" class="background"/><g id="g70"><g id="g68" class="mark-line role-mark marks"><path style="fill:none;stroke:#e45756;stroke-width:3" id="path66" d="M376.47058823529414,154.73430129123048L258.8235294117647,133.95289538572362L141.17647058823528,57.65501744443327L23.529411764705856,21.428571428571445"/></g></g></g><g id="g82" transform="translate(0,0)"><path style="fill:none" id="path74" d="M0,0h400v300h-400Z" class="background"/><g id="g80"><g id="g78" class="mark-line role-mark marks"><path style="fill:none;stroke:#54a24b;stroke-width:3" id="path76" d="M376.47058823529414,289.38225723337985L258.8235294117647,187.79270196665257L141.17647058823528,26.685108672947706L23.529411764705856,21.428571428571445"/></g></g></g><g id="g92" transform="translate(0,0)"><path style="fill:none" id="path84" d="M0,0h400v300h-400Z" class="background"/><g id="g90"><g id="g88" class="mark-line role-mark marks"><path style="fill:none;stroke:#eeca3b;stroke-width:3" id="path86" d="M376.47058823529414,252.17265962823902L258.8235294117647,207.021353415664L141.17647058823528,46.615468459194744L23.529411764705856,21.428571428571445"/></g></g></g><g id="g102" transform="translate(0,0)"><path style="fill:none" id="path94" d="M0,0h400v300h-400Z" class="background"/><g id="g100"><g id="g98" class="mark-line role-mark marks"><path style="fill:none;stroke:#72b7b2;stroke-width:3" id="path96" d="M376.47058823529414,201.62905942964554L258.8235294117647,149.44696068039676L141.17647058823528,24.21056916925778L23.529411764705856,21.428571428571445"/></g></g></g></g><g id="g210" class="mark-group role-legend"><g id="g208" transform="translate(418,0)"><path style="pointer-events:none;fill:none" id="path106" d="M0,0h234v111h-234Z" class="background"/><g id="g206"><g id="g200" class="mark-group role-legend-entry"><g id="g198" transform="translate(0,18)"><path style="pointer-events:none;fill:none" id="path108" d="M0,0h0v0h0Z" class="background"/><g id="g196"><g id="g194" class="mark-group role-scope"><g id="g122" transform="translate(0,0)"><path style="pointer-events:none;fill:none;opacity:1" id="path110" d="M0,0h234v13h-234Z" class="background"/><g id="g120"><g style="pointer-events:none" id="g114" class="mark-symbol role-legend-symbol"><path style="fill:none;stroke:#4c78a8;stroke-width:1.5;opacity:1" id="path112" d="M5,0A5,5,0,1,1,-5,0A5,5,0,1,1,5,0" transform="translate(6,6)"/></g><g style="pointer-events:none" id="g118" class="mark-text role-legend-label"><text style="font-family:sans-serif;font-size:12px;fill:#000;opacity:1" id="text116" text-anchor="start" transform="translate(16,10)">Google</text></g></g></g><g id="g136" transform="translate(0,16)"><path style="pointer-events:none;fill:none;opacity:1" id="path124" d="M0,0h234v13h-234Z" class="background"/><g id="g134"><g style="pointer-events:none" id="g128" class="mark-symbol role-legend-symbol"><path style="fill:none;stroke:#f58518;stroke-width:1.5;opacity:1" id="path126" d="M5,0A5,5,0,1,1,-5,0A5,5,0,1,1,5,0" transform="translate(6,6)"/></g><g style="pointer-events:none" id="g132" class="mark-text role-legend-label"><text style="font-family:sans-serif;font-size:12px;fill:#000;opacity:1" id="text130" text-anchor="start" transform="translate(16,10)">Facebook</text></g></g></g><g id="g150" transform="translate(0,32)"><path style="pointer-events:none;fill:none;opacity:1" id="path138" d="M0,0h234v13h-234Z" class="background"/><g id="g148"><g style="pointer-events:none" id="g142" class="mark-symbol role-legend-symbol"><path style="fill:none;stroke:#e45756;stroke-width:1.5;opacity:1" id="path140" d="M5,0A5,5,0,1,1,-5,0A5,5,0,1,1,5,0" transform="translate(6,6)"/></g><g style="pointer-events:none" id="g146" class="mark-text role-legend-label"><text style="font-family:sans-serif;font-size:12px;fill:#000;opacity:1" id="text144" text-anchor="start" transform="translate(16,10)">Top 50 (excl. Google, Facebook)</text></g></g></g><g id="g164" transform="translate(0,48)"><path style="pointer-events:none;fill:none;opacity:1" id="path152" d="M0,0h234v13h-234Z" class="background"/><g id="g162"><g style="pointer-events:none" id="g156" class="mark-symbol role-legend-symbol"><path style="fill:none;stroke:#72b7b2;stroke-width:1.5;opacity:1" id="path154" d="M5,0A5,5,0,1,1,-5,0A5,5,0,1,1,5,0" transform="translate(6,6)"/></g><g style="pointer-events:none" id="g160" class="mark-text role-legend-label"><text style="font-family:sans-serif;font-size:12px;fill:#000;opacity:1" id="text158" text-anchor="start" transform="translate(16,10)">Smaller Advertisers (rank: 150-200)</text></g></g></g><g id="g178" transform="translate(0,64)"><path style="pointer-events:none;fill:none;opacity:1" id="path166" d="M0,0h234v13h-234Z" class="background"/><g id="g176"><g style="pointer-events:none" id="g170" class="mark-symbol role-legend-symbol"><path style="fill:none;stroke:#54a24b;stroke-width:1.5;opacity:1" id="path168" d="M5,0A5,5,0,1,1,-5,0A5,5,0,1,1,5,0" transform="translate(6,6)"/></g><g style="pointer-events:none" id="g174" class="mark-text role-legend-label"><text style="font-family:sans-serif;font-size:12px;fill:#000;opacity:1" id="text172" text-anchor="start" transform="translate(16,10)">Smaller Advertisers (rank: 50-100)</text></g></g></g><g id="g192" transform="translate(0,80)"><path style="pointer-events:none;fill:none;opacity:1" id="path180" d="M0,0h234v13h-234Z" class="background"/><g id="g190"><g style="pointer-events:none" id="g184" class="mark-symbol role-legend-symbol"><path style="fill:none;stroke:#eeca3b;stroke-width:1.5;opacity:1" id="path182" d="M5,0A5,5,0,1,1,-5,0A5,5,0,1,1,5,0" transform="translate(6,6)"/></g><g style="pointer-events:none" id="g188" class="mark-text role-legend-label"><text style="font-family:sans-serif;font-size:12px;fill:#000;opacity:1" id="text186" text-anchor="start" transform="translate(16,10)">Smaller Advertisers (rank: 100-150)</text></g></g></g></g></g></g></g><g style="pointer-events:none" id="g204" class="mark-text role-legend-title"><text style="font-family:sans-serif;font-size:13px;font-weight:700;fill:#000;opacity:1" id="text202" text-anchor="start" transform="translate(0,10)">Company</text></g></g></g></g><g style="pointer-events:none" id="g214" class="mark-text role-title"><g id="g1118"><text id="text212" x="199" y="-7" style="font-weight:700;font-size:13px;font-family:sans-serif;text-anchor:middle;opacity:1;fill:#000">AdTech Vendors (reach) - % change</text></g></g><g id="g250" class="mark-group role-axis"><g id="g248" transform="translate(0.5,300.5)"><path style="pointer-events:none;fill:none" id="path216" d="M0,0h0v0h0Z" class="background"/><g id="g246"><g style="pointer-events:none" id="g226" class="mark-rule role-axis-tick"><line style="fill:none;stroke:#888;stroke-width:1;opacity:1" id="line218" x2="0" y2="5" transform="translate(24,0)"/><line style="fill:none;stroke:#888;stroke-width:1;opacity:1" id="line220" x2="0" y2="5" transform="translate(141,0)"/><line style="fill:none;stroke:#888;stroke-width:1;opacity:1" id="line222" x2="0" y2="5" transform="translate(259,0)"/><line style="fill:none;stroke:#888;stroke-width:1;opacity:1" id="line224" x2="0" y2="5" transform="translate(376,0)"/></g><g style="pointer-events:none" id="g236" class="mark-text role-axis-label"><text style="font-family:sans-serif;font-size:12px;fill:#000;opacity:1" id="text228" text-anchor="middle" transform="translate(23.529411764705856,16)">2018-04</text><text style="font-family:sans-serif;font-size:12px;fill:#000;opacity:1" id="text230" text-anchor="middle" transform="translate(141.17647058823528,16)">2018-05</text><text style="font-family:sans-serif;font-size:12px;fill:#000;opacity:1" id="text232" text-anchor="middle" transform="translate(258.8235294117647,16)">2018-06</text><text style="font-family:sans-serif;font-size:12px;fill:#000;opacity:1" id="text234" text-anchor="middle" transform="translate(376.47058823529414,16)">2018-07</text></g><g style="pointer-events:none" id="g240" class="mark-rule role-axis-domain"><line style="fill:none;stroke:#888;stroke-width:.5;opacity:1" id="line238" x2="400" y2="0" transform="translate(0,0)"/></g><g style="pointer-events:none" id="g244" class="mark-text role-axis-title"><text style="font-family:sans-serif;font-size:13px;font-weight:700;fill:#000;opacity:1" id="text242" text-anchor="middle" transform="translate(200,33)">month</text></g></g></g></g><g id="g294" class="mark-group role-axis"><g id="g292" transform="translate(0.5,0.5)"><path style="pointer-events:none;fill:none" id="path252" d="M0,0h0v0h0Z" class="background"/><g id="g290"><g style="pointer-events:none" id="g266" class="mark-rule role-axis-tick"><line style="fill:none;stroke:#888;stroke-width:1;opacity:1" id="line254" x2="-5" y2="0" transform="translate(0,289)"/><line style="fill:none;stroke:#888;stroke-width:1;opacity:1" id="line256" x2="-5" y2="0" transform="translate(0,236)"/><line style="fill:none;stroke:#888;stroke-width:1;opacity:1" id="line258" x2="-5" y2="0" transform="translate(0,182)"/><line style="fill:none;stroke:#888;stroke-width:1;opacity:1" id="line260" x2="-5" y2="0" transform="translate(0,129)"/><line style="fill:none;stroke:#888;stroke-width:1;opacity:1" id="line262" x2="-5" y2="0" transform="translate(0,75)"/><line style="fill:none;stroke:#888;stroke-width:1;opacity:1" id="line264" x2="-5" y2="0" transform="translate(0,21)"/></g><g style="pointer-events:none" id="g280" class="mark-text role-axis-label"><text style="font-family:sans-serif;font-size:12px;fill:#000;opacity:1" id="text268" text-anchor="end" transform="translate(-7,293.2857142857143)">-25%</text><text style="font-family:sans-serif;font-size:12px;fill:#000;opacity:1" id="text270" text-anchor="end" transform="translate(-7,239.71428571428572)">-20%</text><text style="font-family:sans-serif;font-size:12px;fill:#000;opacity:1" id="text272" text-anchor="end" transform="translate(-7,186.14285714285714)">-15%</text><text style="font-family:sans-serif;font-size:12px;fill:#000;opacity:1" id="text274" text-anchor="end" transform="translate(-7,132.57142857142858)">-10%</text><text style="font-family:sans-serif;font-size:12px;fill:#000;opacity:1" id="text276" text-anchor="end" transform="translate(-7,79)">-5%</text><text style="font-family:sans-serif;font-size:12px;fill:#000;opacity:1" id="text278" text-anchor="end" transform="translate(-7,25.428571428571445)">0%</text></g><g style="pointer-events:none" id="g284" class="mark-rule role-axis-domain"><line style="fill:none;stroke:#888;stroke-width:.5;opacity:1" id="line282" x2="0" y2="-300" transform="translate(0,300)"/></g><g style="pointer-events:none" id="g288" class="mark-text role-axis-title"><text style="font-weight:700;font-size:13px;font-family:sans-serif;text-anchor:middle;opacity:1;fill:#000" id="text286" transform="rotate(-90,52,98)">Change in Reach</text></g></g></g></g></g></g></g></g></svg>