<svg xmlns="http://www.w3.org/2000/svg" xmlns:xlink="http://www.w3.org/1999/xlink" width="800" height="600" class="main-svg" viewBox="0 0 800 600"><rect width="800" height="600" x="0" y="0" style="fill:#f5f6f9;fill-opacity:1"/><defs id="defs-6a65b0"><g class="clips"><clipPath id="clip6a65b0xyplot" class="plotclip"><rect width="640" height="420"/></clipPath><clipPath id="clip6a65b0x" class="axesclip"><rect width="640" height="600" x="80" y="0"/></clipPath><clipPath id="clip6a65b0y" class="axesclip"><rect width="800" height="420" x="0" y="100"/></clipPath><clipPath id="clip6a65b0xy" class="axesclip"><rect width="640" height="420" x="80" y="100"/></clipPath></g></defs><g class="bglayer"><rect width="640" height="420" x="80" y="100" class="bg" style="fill:#f5f6f9;fill-opacity:1;stroke-width:0"/></g><g class="cartesianlayer"><g class="subplot xy"><g class="gridlayer"><g class="x"><path d="M0,100v420" class="xgrid crisp" transform="translate(253.06,0)" style="stroke:#e5e6e9;stroke-opacity:1;stroke-width:1px"/><path d="M0,100v420" class="xgrid crisp" transform="translate(389.75,0)" style="stroke:#e5e6e9;stroke-opacity:1;stroke-width:1px"/><path d="M0,100v420" class="xgrid crisp" transform="translate(526.44,0)" style="stroke:#e5e6e9;stroke-opacity:1;stroke-width:1px"/><path d="M0,100v420" class="xgrid crisp" transform="translate(663.12,0)" style="stroke:#e5e6e9;stroke-opacity:1;stroke-width:1px"/></g><g class="y"><path d="M80,0h640" class="ygrid crisp" transform="translate(0,507.91)" style="stroke:#e5e6e9;stroke-opacity:1;stroke-width:1px"/><path d="M80,0h640" class="ygrid crisp" transform="translate(0,431.38)" style="stroke:#e5e6e9;stroke-opacity:1;stroke-width:1px"/><path d="M80,0h640" class="ygrid crisp" transform="translate(0,354.85)" style="stroke:#e5e6e9;stroke-opacity:1;stroke-width:1px"/><path d="M80,0h640" class="ygrid crisp" transform="translate(0,278.33000000000004)" style="stroke:#e5e6e9;stroke-opacity:1;stroke-width:1px"/><path d="M80,0h640" class="ygrid crisp" transform="translate(0,201.8)" style="stroke:#e5e6e9;stroke-opacity:1;stroke-width:1px"/><path d="M80,0h640" class="ygrid crisp" transform="translate(0,125.27)" style="stroke:#e5e6e9;stroke-opacity:1;stroke-width:1px"/></g></g><g class="zerolinelayer"><path d="M0,100v420" class="xzl zl crisp" transform="translate(116.38,0)" style="stroke:#444;stroke-opacity:1;stroke-width:1px"/></g><path class="xlines-below"/><path class="ylines-below"/><g class="plot" clip-path="url(#clip6a65b0xyplot)" transform="translate(80, 100)"><g class="scatterlayer mlayer"><g class="trace scatter trace6c8162" style="stroke-miterlimit:2;opacity:1"><g class="points"><path style="opacity:1;stroke-width:0;fill:#1f77b4;fill-opacity:1" d="M3.5,0A3.5,3.5 0 1,1 0,-3.5A3.5,3.5 0 0,1 3.5,0Z" class="point" transform="translate(36.38,356.65)"/><path style="opacity:1;stroke-width:0;fill:#1f77b4;fill-opacity:1" d="M3.5,0A3.5,3.5 0 1,1 0,-3.5A3.5,3.5 0 0,1 3.5,0Z" class="point" transform="translate(43.21,307.36)"/><path style="opacity:1;stroke-width:0;fill:#1f77b4;fill-opacity:1" d="M3.5,0A3.5,3.5 0 1,1 0,-3.5A3.5,3.5 0 0,1 3.5,0Z" class="point" transform="translate(50.04,394.63)"/><path style="opacity:1;stroke-width:0;fill:#1f77b4;fill-opacity:1" d="M3.5,0A3.5,3.5 0 1,1 0,-3.5A3.5,3.5 0 0,1 3.5,0Z" class="point" transform="translate(56.88,319.75)"/><path style="opacity:1;stroke-width:0;fill:#1f77b4;fill-opacity:1" d="M3.5,0A3.5,3.5 0 1,1 0,-3.5A3.5,3.5 0 0,1 3.5,0Z" class="point" transform="translate(63.71,378.46)"/><path style="opacity:1;stroke-width:0;fill:#1f77b4;fill-opacity:1" d="M3.5,0A3.5,3.5 0 1,1 0,-3.5A3.5,3.5 0 0,1 3.5,0Z" class="point" transform="translate(70.55,337.68)"/><path style="opacity:1;stroke-width:0;fill:#1f77b4;fill-opacity:1" d="M3.5,0A3.5,3.5 0 1,1 0,-3.5A3.5,3.5 0 0,1 3.5,0Z" class="point" transform="translate(77.38,313.82)"/><path style="opacity:1;stroke-width:0;fill:#1f77b4;fill-opacity:1" d="M3.5,0A3.5,3.5 0 1,1 0,-3.5A3.5,3.5 0 0,1 3.5,0Z" class="point" transform="translate(84.22,285.68)"/><path style="opacity:1;stroke-width:0;fill:#1f77b4;fill-opacity:1" d="M3.5,0A3.5,3.5 0 1,1 0,-3.5A3.5,3.5 0 0,1 3.5,0Z" class="point" transform="translate(91.05,309.4)"/><path style="opacity:1;stroke-width:0;fill:#1f77b4;fill-opacity:1" d="M3.5,0A3.5,3.5 0 1,1 0,-3.5A3.5,3.5 0 0,1 3.5,0Z" class="point" transform="translate(97.88,276.22)"/><path style="opacity:1;stroke-width:0;fill:#1f77b4;fill-opacity:1" d="M3.5,0A3.5,3.5 0 1,1 0,-3.5A3.5,3.5 0 0,1 3.5,0Z" class="point" transform="translate(104.72,297.91)"/><path style="opacity:1;stroke-width:0;fill:#1f77b4;fill-opacity:1" d="M3.5,0A3.5,3.5 0 1,1 0,-3.5A3.5,3.5 0 0,1 3.5,0Z" class="point" transform="translate(111.55,336.53)"/><path style="opacity:1;stroke-width:0;fill:#1f77b4;fill-opacity:1" d="M3.5,0A3.5,3.5 0 1,1 0,-3.5A3.5,3.5 0 0,1 3.5,0Z" class="point" transform="translate(118.39,274.53)"/><path style="opacity:1;stroke-width:0;fill:#1f77b4;fill-opacity:1" d="M3.5,0A3.5,3.5 0 1,1 0,-3.5A3.5,3.5 0 0,1 3.5,0Z" class="point" transform="translate(125.22,258.64)"/><path style="opacity:1;stroke-width:0;fill:#1f77b4;fill-opacity:1" d="M3.5,0A3.5,3.5 0 1,1 0,-3.5A3.5,3.5 0 0,1 3.5,0Z" class="point" transform="translate(132.06,305.33)"/><path style="opacity:1;stroke-width:0;fill:#1f77b4;fill-opacity:1" d="M3.5,0A3.5,3.5 0 1,1 0,-3.5A3.5,3.5 0 0,1 3.5,0Z" class="point" transform="translate(138.89,351.95)"/><path style="opacity:1;stroke-width:0;fill:#1f77b4;fill-opacity:1" d="M3.5,0A3.5,3.5 0 1,1 0,-3.5A3.5,3.5 0 0,1 3.5,0Z" class="point" transform="translate(145.72,226.96)"/><path style="opacity:1;stroke-width:0;fill:#1f77b4;fill-opacity:1" d="M3.5,0A3.5,3.5 0 1,1 0,-3.5A3.5,3.5 0 0,1 3.5,0Z" class="point" transform="translate(152.56,286.99)"/><path style="opacity:1;stroke-width:0;fill:#1f77b4;fill-opacity:1" d="M3.5,0A3.5,3.5 0 1,1 0,-3.5A3.5,3.5 0 0,1 3.5,0Z" class="point" transform="translate(159.39,273.45)"/><path style="opacity:1;stroke-width:0;fill:#1f77b4;fill-opacity:1" d="M3.5,0A3.5,3.5 0 1,1 0,-3.5A3.5,3.5 0 0,1 3.5,0Z" class="point" transform="translate(166.23,289.44)"/><path style="opacity:1;stroke-width:0;fill:#1f77b4;fill-opacity:1" d="M3.5,0A3.5,3.5 0 1,1 0,-3.5A3.5,3.5 0 0,1 3.5,0Z" class="point" transform="translate(173.06,263.38)"/><path style="opacity:1;stroke-width:0;fill:#1f77b4;fill-opacity:1" d="M3.5,0A3.5,3.5 0 1,1 0,-3.5A3.5,3.5 0 0,1 3.5,0Z" class="point" transform="translate(179.9,291.27)"/><path style="opacity:1;stroke-width:0;fill:#1f77b4;fill-opacity:1" d="M3.5,0A3.5,3.5 0 1,1 0,-3.5A3.5,3.5 0 0,1 3.5,0Z" class="point" transform="translate(186.73,274.56)"/><path style="opacity:1;stroke-width:0;fill:#1f77b4;fill-opacity:1" d="M3.5,0A3.5,3.5 0 1,1 0,-3.5A3.5,3.5 0 0,1 3.5,0Z" class="point" transform="translate(193.56,267.16)"/><path style="opacity:1;stroke-width:0;fill:#1f77b4;fill-opacity:1" d="M3.5,0A3.5,3.5 0 1,1 0,-3.5A3.5,3.5 0 0,1 3.5,0Z" class="point" transform="translate(200.4,265.96)"/><path style="opacity:1;stroke-width:0;fill:#1f77b4;fill-opacity:1" d="M3.5,0A3.5,3.5 0 1,1 0,-3.5A3.5,3.5 0 0,1 3.5,0Z" class="point" transform="translate(207.23,250.31)"/><path style="opacity:1;stroke-width:0;fill:#1f77b4;fill-opacity:1" d="M3.5,0A3.5,3.5 0 1,1 0,-3.5A3.5,3.5 0 0,1 3.5,0Z" class="point" transform="translate(214.07,230.7)"/><path style="opacity:1;stroke-width:0;fill:#1f77b4;fill-opacity:1" d="M3.5,0A3.5,3.5 0 1,1 0,-3.5A3.5,3.5 0 0,1 3.5,0Z" class="point" transform="translate(220.9,191.33)"/><path style="opacity:1;stroke-width:0;fill:#1f77b4;fill-opacity:1" d="M3.5,0A3.5,3.5 0 1,1 0,-3.5A3.5,3.5 0 0,1 3.5,0Z" class="point" transform="translate(227.74,254.41)"/><path style="opacity:1;stroke-width:0;fill:#1f77b4;fill-opacity:1" d="M3.5,0A3.5,3.5 0 1,1 0,-3.5A3.5,3.5 0 0,1 3.5,0Z" class="point" transform="translate(234.57,190.09)"/><path style="opacity:1;stroke-width:0;fill:#1f77b4;fill-opacity:1" d="M3.5,0A3.5,3.5 0 1,1 0,-3.5A3.5,3.5 0 0,1 3.5,0Z" class="point" transform="translate(241.41,231.86)"/><path style="opacity:1;stroke-width:0;fill:#1f77b4;fill-opacity:1" d="M3.5,0A3.5,3.5 0 1,1 0,-3.5A3.5,3.5 0 0,1 3.5,0Z" class="point" transform="translate(248.24,278.01)"/><path style="opacity:1;stroke-width:0;fill:#1f77b4;fill-opacity:1" d="M3.5,0A3.5,3.5 0 1,1 0,-3.5A3.5,3.5 0 0,1 3.5,0Z" class="point" transform="translate(261.91,232.9)"/><path style="opacity:1;stroke-width:0;fill:#1f77b4;fill-opacity:1" d="M3.5,0A3.5,3.5 0 1,1 0,-3.5A3.5,3.5 0 0,1 3.5,0Z" class="point" transform="translate(268.74,168.68)"/><path style="opacity:1;stroke-width:0;fill:#1f77b4;fill-opacity:1" d="M3.5,0A3.5,3.5 0 1,1 0,-3.5A3.5,3.5 0 0,1 3.5,0Z" class="point" transform="translate(275.58,202.06)"/><path style="opacity:1;stroke-width:0;fill:#1f77b4;fill-opacity:1" d="M3.5,0A3.5,3.5 0 1,1 0,-3.5A3.5,3.5 0 0,1 3.5,0Z" class="point" transform="translate(282.41,200.39)"/><path style="opacity:1;stroke-width:0;fill:#1f77b4;fill-opacity:1" d="M3.5,0A3.5,3.5 0 1,1 0,-3.5A3.5,3.5 0 0,1 3.5,0Z" class="point" transform="translate(289.25,183.79)"/><path style="opacity:1;stroke-width:0;fill:#1f77b4;fill-opacity:1" d="M3.5,0A3.5,3.5 0 1,1 0,-3.5A3.5,3.5 0 0,1 3.5,0Z" class="point" transform="translate(296.08,163.16)"/><path style="opacity:1;stroke-width:0;fill:#1f77b4;fill-opacity:1" d="M3.5,0A3.5,3.5 0 1,1 0,-3.5A3.5,3.5 0 0,1 3.5,0Z" class="point" transform="translate(302.91,190.01)"/><path style="opacity:1;stroke-width:0;fill:#1f77b4;fill-opacity:1" d="M3.5,0A3.5,3.5 0 1,1 0,-3.5A3.5,3.5 0 0,1 3.5,0Z" class="point" transform="translate(309.75,171.62)"/><path style="opacity:1;stroke-width:0;fill:#1f77b4;fill-opacity:1" d="M3.5,0A3.5,3.5 0 1,1 0,-3.5A3.5,3.5 0 0,1 3.5,0Z" class="point" transform="translate(316.58,197.94)"/><path style="opacity:1;stroke-width:0;fill:#1f77b4;fill-opacity:1" d="M3.5,0A3.5,3.5 0 1,1 0,-3.5A3.5,3.5 0 0,1 3.5,0Z" class="point" transform="translate(323.42,199.46)"/><path style="opacity:1;stroke-width:0;fill:#1f77b4;fill-opacity:1" d="M3.5,0A3.5,3.5 0 1,1 0,-3.5A3.5,3.5 0 0,1 3.5,0Z" class="point" transform="translate(330.25,151.39)"/><path style="opacity:1;stroke-width:0;fill:#1f77b4;fill-opacity:1" d="M3.5,0A3.5,3.5 0 1,1 0,-3.5A3.5,3.5 0 0,1 3.5,0Z" class="point" transform="translate(337.09,210.67)"/><path style="opacity:1;stroke-width:0;fill:#1f77b4;fill-opacity:1" d="M3.5,0A3.5,3.5 0 1,1 0,-3.5A3.5,3.5 0 0,1 3.5,0Z" class="point" transform="translate(343.92,201.1)"/><path style="opacity:1;stroke-width:0;fill:#1f77b4;fill-opacity:1" d="M3.5,0A3.5,3.5 0 1,1 0,-3.5A3.5,3.5 0 0,1 3.5,0Z" class="point" transform="translate(350.75,170.26)"/><path style="opacity:1;stroke-width:0;fill:#1f77b4;fill-opacity:1" d="M3.5,0A3.5,3.5 0 1,1 0,-3.5A3.5,3.5 0 0,1 3.5,0Z" class="point" transform="translate(357.59,126.31)"/><path style="opacity:1;stroke-width:0;fill:#1f77b4;fill-opacity:1" d="M3.5,0A3.5,3.5 0 1,1 0,-3.5A3.5,3.5 0 0,1 3.5,0Z" class="point" transform="translate(364.42,155.51)"/><path style="opacity:1;stroke-width:0;fill:#1f77b4;fill-opacity:1" d="M3.5,0A3.5,3.5 0 1,1 0,-3.5A3.5,3.5 0 0,1 3.5,0Z" class="point" transform="translate(371.26,151.07)"/><path style="opacity:1;stroke-width:0;fill:#1f77b4;fill-opacity:1" d="M3.5,0A3.5,3.5 0 1,1 0,-3.5A3.5,3.5 0 0,1 3.5,0Z" class="point" transform="translate(378.09,123.47)"/><path style="opacity:1;stroke-width:0;fill:#1f77b4;fill-opacity:1" d="M3.5,0A3.5,3.5 0 1,1 0,-3.5A3.5,3.5 0 0,1 3.5,0Z" class="point" transform="translate(391.76,128.03)"/><path style="opacity:1;stroke-width:0;fill:#1f77b4;fill-opacity:1" d="M3.5,0A3.5,3.5 0 1,1 0,-3.5A3.5,3.5 0 0,1 3.5,0Z" class="point" transform="translate(398.59,129.68)"/><path style="opacity:1;stroke-width:0;fill:#1f77b4;fill-opacity:1" d="M3.5,0A3.5,3.5 0 1,1 0,-3.5A3.5,3.5 0 0,1 3.5,0Z" class="point" transform="translate(405.43,128.06)"/><path style="opacity:1;stroke-width:0;fill:#1f77b4;fill-opacity:1" d="M3.5,0A3.5,3.5 0 1,1 0,-3.5A3.5,3.5 0 0,1 3.5,0Z" class="point" transform="translate(412.26,166.67)"/><path style="opacity:1;stroke-width:0;fill:#1f77b4;fill-opacity:1" d="M3.5,0A3.5,3.5 0 1,1 0,-3.5A3.5,3.5 0 0,1 3.5,0Z" class="point" transform="translate(425.93,121.43)"/><path style="opacity:1;stroke-width:0;fill:#1f77b4;fill-opacity:1" d="M3.5,0A3.5,3.5 0 1,1 0,-3.5A3.5,3.5 0 0,1 3.5,0Z" class="point" transform="translate(432.77,140.12)"/><path style="opacity:1;stroke-width:0;fill:#1f77b4;fill-opacity:1" d="M3.5,0A3.5,3.5 0 1,1 0,-3.5A3.5,3.5 0 0,1 3.5,0Z" class="point" transform="translate(446.44,178.06)"/><path style="opacity:1;stroke-width:0;fill:#1f77b4;fill-opacity:1" d="M3.5,0A3.5,3.5 0 1,1 0,-3.5A3.5,3.5 0 0,1 3.5,0Z" class="point" transform="translate(453.27,45.17)"/><path style="opacity:1;stroke-width:0;fill:#1f77b4;fill-opacity:1" d="M3.5,0A3.5,3.5 0 1,1 0,-3.5A3.5,3.5 0 0,1 3.5,0Z" class="point" transform="translate(466.94,73.38)"/><path style="opacity:1;stroke-width:0;fill:#1f77b4;fill-opacity:1" d="M3.5,0A3.5,3.5 0 1,1 0,-3.5A3.5,3.5 0 0,1 3.5,0Z" class="point" transform="translate(473.77,106.99)"/><path style="opacity:1;stroke-width:0;fill:#1f77b4;fill-opacity:1" d="M3.5,0A3.5,3.5 0 1,1 0,-3.5A3.5,3.5 0 0,1 3.5,0Z" class="point" transform="translate(480.61,55.46)"/><path style="opacity:1;stroke-width:0;fill:#1f77b4;fill-opacity:1" d="M3.5,0A3.5,3.5 0 1,1 0,-3.5A3.5,3.5 0 0,1 3.5,0Z" class="point" transform="translate(487.44,112)"/><path style="opacity:1;stroke-width:0;fill:#1f77b4;fill-opacity:1" d="M3.5,0A3.5,3.5 0 1,1 0,-3.5A3.5,3.5 0 0,1 3.5,0Z" class="point" transform="translate(494.28,67.93)"/><path style="opacity:1;stroke-width:0;fill:#1f77b4;fill-opacity:1" d="M3.5,0A3.5,3.5 0 1,1 0,-3.5A3.5,3.5 0 0,1 3.5,0Z" class="point" transform="translate(501.11,135.33)"/><path style="opacity:1;stroke-width:0;fill:#1f77b4;fill-opacity:1" d="M3.5,0A3.5,3.5 0 1,1 0,-3.5A3.5,3.5 0 0,1 3.5,0Z" class="point" transform="translate(507.94,72.12)"/><path style="opacity:1;stroke-width:0;fill:#1f77b4;fill-opacity:1" d="M3.5,0A3.5,3.5 0 1,1 0,-3.5A3.5,3.5 0 0,1 3.5,0Z" class="point" transform="translate(514.78,57.37)"/><path style="opacity:1;stroke-width:0;fill:#1f77b4;fill-opacity:1" d="M3.5,0A3.5,3.5 0 1,1 0,-3.5A3.5,3.5 0 0,1 3.5,0Z" class="point" transform="translate(528.45,27)"/><path style="opacity:1;stroke-width:0;fill:#1f77b4;fill-opacity:1" d="M3.5,0A3.5,3.5 0 1,1 0,-3.5A3.5,3.5 0 0,1 3.5,0Z" class="point" transform="translate(535.28,39.55)"/><path style="opacity:1;stroke-width:0;fill:#1f77b4;fill-opacity:1" d="M3.5,0A3.5,3.5 0 1,1 0,-3.5A3.5,3.5 0 0,1 3.5,0Z" class="point" transform="translate(548.95,148.39)"/><path style="opacity:1;stroke-width:0;fill:#1f77b4;fill-opacity:1" d="M3.5,0A3.5,3.5 0 1,1 0,-3.5A3.5,3.5 0 0,1 3.5,0Z" class="point" transform="translate(562.62,25.38)"/><path style="opacity:1;stroke-width:0;fill:#1f77b4;fill-opacity:1" d="M3.5,0A3.5,3.5 0 1,1 0,-3.5A3.5,3.5 0 0,1 3.5,0Z" class="point" transform="translate(603.63,56.3)"/></g></g><g class="trace scatter trace53ebd1" style="stroke-miterlimit:2;opacity:1"><path style="vector-effect:non-scaling-stroke;fill:none;stroke:#1f77b4;stroke-opacity:1;stroke-width:2px;opacity:1" d="M36.38,344.18L603.63,23.9" class="js-line"/></g></g></g><path style="fill:none" d="M0,0" class="xlines-above crisp"/><path style="fill:none" d="M0,0" class="ylines-above crisp"/><g class="xaxislayer-above"><g class="xtick"><text x="0" y="533" text-anchor="middle" transform="translate(116.38,0)" style="font-family:TOBESTRIPPEDOpen SansTOBESTRIPPED,verdana,arial,sans-serif;font-size:12px;fill:#444;fill-opacity:1;white-space:pre">0</text></g><g class="xtick"><text x="0" y="533" text-anchor="middle" transform="translate(253.06,0)" style="font-family:TOBESTRIPPEDOpen SansTOBESTRIPPED,verdana,arial,sans-serif;font-size:12px;fill:#444;fill-opacity:1;white-space:pre">20</text></g><g class="xtick"><text x="0" y="533" text-anchor="middle" transform="translate(389.75,0)" style="font-family:TOBESTRIPPEDOpen SansTOBESTRIPPED,verdana,arial,sans-serif;font-size:12px;fill:#444;fill-opacity:1;white-space:pre">40</text></g><g class="xtick"><text x="0" y="533" text-anchor="middle" transform="translate(526.44,0)" style="font-family:TOBESTRIPPEDOpen SansTOBESTRIPPED,verdana,arial,sans-serif;font-size:12px;fill:#444;fill-opacity:1;white-space:pre">60</text></g><g class="xtick"><text x="0" y="533" text-anchor="middle" transform="translate(663.12,0)" style="font-family:TOBESTRIPPEDOpen SansTOBESTRIPPED,verdana,arial,sans-serif;font-size:12px;fill:#444;fill-opacity:1;white-space:pre">80</text></g></g><g class="yaxislayer-above"><g class="ytick"><text x="79" y="4.2" text-anchor="end" transform="translate(0,507.91)" style="font-family:TOBESTRIPPEDOpen SansTOBESTRIPPED,verdana,arial,sans-serif;font-size:12px;fill:#444;fill-opacity:1;white-space:pre">1.5</text></g><g class="ytick"><text x="79" y="4.2" text-anchor="end" transform="translate(0,431.38)" style="font-family:TOBESTRIPPEDOpen SansTOBESTRIPPED,verdana,arial,sans-serif;font-size:12px;fill:#444;fill-opacity:1;white-space:pre">2</text></g><g class="ytick"><text x="79" y="4.2" text-anchor="end" transform="translate(0,354.85)" style="font-family:TOBESTRIPPEDOpen SansTOBESTRIPPED,verdana,arial,sans-serif;font-size:12px;fill:#444;fill-opacity:1;white-space:pre">2.5</text></g><g class="ytick"><text x="79" y="4.2" text-anchor="end" transform="translate(0,278.33000000000004)" style="font-family:TOBESTRIPPEDOpen SansTOBESTRIPPED,verdana,arial,sans-serif;font-size:12px;fill:#444;fill-opacity:1;white-space:pre">3</text></g><g class="ytick"><text x="79" y="4.2" text-anchor="end" transform="translate(0,201.8)" style="font-family:TOBESTRIPPEDOpen SansTOBESTRIPPED,verdana,arial,sans-serif;font-size:12px;fill:#444;fill-opacity:1;white-space:pre">3.5</text></g><g class="ytick"><text x="79" y="4.2" text-anchor="end" transform="translate(0,125.27)" style="font-family:TOBESTRIPPEDOpen SansTOBESTRIPPED,verdana,arial,sans-serif;font-size:12px;fill:#444;fill-opacity:1;white-space:pre">4</text></g></g></g></g><g class="infolayer"><g class="g-gtitle"><text style="font-family:TOBESTRIPPEDOpen SansTOBESTRIPPED,verdana,arial,sans-serif;font-size:17px;fill:#444;opacity:1;font-weight:400;white-space:pre" x="400" y="50" class="gtitle" text-anchor="middle">Relationship between number of trackers and log of average page latency</text></g><g class="g-xtitle"><text style="font-family:TOBESTRIPPEDOpen SansTOBESTRIPPED,verdana,arial,sans-serif;font-size:14px;fill:#444;opacity:1;font-weight:400;white-space:pre" x="400" y="572" class="xtitle" text-anchor="middle">Number of trackers</text></g><g class="g-ytitle"><text style="font-family:TOBESTRIPPEDOpen SansTOBESTRIPPED,verdana,arial,sans-serif;font-size:14px;fill:#444;opacity:1;font-weight:400;white-space:pre" x="42" y="310" class="ytitle" text-anchor="middle" transform="rotate(-90,42,310)">Ln(Average page load (sec))</text></g></g></svg>